<?xml version="1.0" encoding="UTF-8" standalone="no"?>
<svg
   xmlns:dc="http://purl.org/dc/elements/1.1/"
   xmlns:cc="http://creativecommons.org/ns#"
   xmlns:rdf="http://www.w3.org/1999/02/22-rdf-syntax-ns#"
   xmlns:svg="http://www.w3.org/2000/svg"
   xmlns="http://www.w3.org/2000/svg"
   xmlns:sodipodi="http://sodipodi.sourceforge.net/DTD/sodipodi-0.dtd"
   xmlns:inkscape="http://www.inkscape.org/namespaces/inkscape"
   width="32"
   height="32"
   version="1.1"
   viewBox="0 0 8.4666668 8.4666665"
   id="svg8"
   sodipodi:docname="icon-twitter-dark.svg"
   inkscape:version="0.92.4 (unknown)">
  <defs
     id="defs12" />
  <sodipodi:namedview
     pagecolor="#ffffff"
     bordercolor="#666666"
     borderopacity="1"
     objecttolerance="10"
     gridtolerance="10"
     guidetolerance="10"
     inkscape:pageopacity="0"
     inkscape:pageshadow="2"
     inkscape:window-width="1366"
     inkscape:window-height="704"
     id="namedview10"
     showgrid="false"
     inkscape:zoom="10.429825"
     inkscape:cx="20.839362"
     inkscape:cy="11.122494"
     inkscape:window-x="0"
     inkscape:window-y="27"
     inkscape:window-maximized="1"
     inkscape:current-layer="g6" />
  <metadata
     id="metadata2">
    <rdf:RDF>
      <cc:Work
         rdf:about="">
        <dc:format>image/svg+xml</dc:format>
        <dc:type
           rdf:resource="http://purl.org/dc/dcmitype/StillImage" />
        <dc:title />
      </cc:Work>
    </rdf:RDF>
  </metadata>
  <g
     transform="translate(-106 -93.645)"
     id="g6">
    <path
       d="M 110.23333,93.645 A 4.2335504,4.2335502 0 0 0 106,97.878334 a 4.2335504,4.2335502 0 0 0 4.23333,4.233336 4.2335504,4.2335502 0 0 0 4.23334,-4.233336 4.2335504,4.2335502 0 0 0 -4.23334,-4.233334 z m 1.18393,2.026573 c -0.0213,0.08709 -0.0819,0.156492 -0.20109,0.201083 0.12028,-0.04615 0.24192,-0.08507 0.36823,-0.107982 0.11708,-0.02122 0.1159,0.0716 0.0497,0.118425 -0.13443,0.09484 -0.2776,0.105789 -0.41784,0.151444 0.43,0.0101 0.78127,0.214934 1.05593,0.658978 0.0913,0.14757 0.15262,0.295183 0.16711,0.457027 0.18341,0.05155 0.36581,0.06217 0.55016,0.02964 0.0505,-0.0085 0.0979,-0.0192 0.14268,-0.04009 -0.0716,0.107473 -0.15397,0.195928 -0.26986,0.235917 -0.11068,0.03824 -0.2215,0.07597 -0.34386,0.07917 0.1991,0.0753 0.41821,0.07917 0.64332,0.06351 -0.27541,0.265061 -0.48576,0.259069 -0.69729,0.255932 -0.0928,0.391659 -0.28282,0.781875 -0.68335,1.139526 -0.52546,0.469184 -1.09134,0.692671 -1.67575,0.74168 -0.54791,0.04582 -1.0775,0.03992 -1.65578,-0.230684 -0.4287,-0.200595 -0.7882,-0.476934 -1.06637,-0.860072 0.37604,0.347774 1.34175,0.677073 2.12753,-0.09315 -0.14134,0.02207 -0.25865,-0.0051 -0.34822,-0.09315 -0.0851,-0.08423 -0.0898,-0.171439 -0.0445,-0.250711 0.037,-0.06452 0.11489,-0.110338 0.19152,-0.157502 -0.13897,0.02594 -0.25793,0.01179 -0.36388,-0.04178 -0.14217,-0.07277 -0.28071,-0.148579 -0.31947,-0.306417 0.0871,-0.09147 0.18411,-0.173588 0.39347,-0.142685 -0.19694,-0.06569 -0.3736,-0.151781 -0.50142,-0.280312 -0.12449,-0.125165 -0.13678,-0.206521 -0.15667,-0.30467 0.10866,-0.04026 0.2221,-0.06065 0.34388,-0.04868 -0.27539,-0.140829 -0.39235,-0.334846 -0.45704,-0.545818 -0.0195,-0.06385 -0.0231,-0.124156 -0.0152,-0.186299 1.11532,0.42101 1.63722,0.723422 1.92563,1.007186 0.12971,-0.345212 0.43222,-1.127044 0.88444,-1.39548 0.002,0.04261 -0.0152,0.08827 -0.0486,0.137464 0.13392,-0.07463 0.23801,-0.193876 0.4222,-0.191521 z"
       id="path4"
       style="fill:#404040;stroke-width:0.38486427;fill-opacity:1"
       inkscape:connector-curvature="0" />
  </g>
</svg>
