<svg width="16" height="16" version="1.1" viewBox="0 0 4.2333333 4.2333335" xmlns="http://www.w3.org/2000/svg"><defs><linearGradient id="b" x1="-207" x2="-211" y1="68.8" y2="7.71" gradientTransform="matrix(.06 0 0 .06 13.1 -.179)" gradientUnits="userSpaceOnUse"><stop stop-color="#a40000" offset="0"/><stop stop-color="#ef2929" offset="1"/></linearGradient><linearGradient id="a" x1="-147" x2="-157" y1="58.3" y2="26.5" gradientTransform="matrix(.0606 0 0 .0606 11.9 .0447)" gradientUnits="userSpaceOnUse"><stop stop-color="#204a87" offset="0"/><stop stop-color="#729fcf" offset="1"/></linearGradient></defs><path d="m3.56 1.49-0.436 0.25-0.193-0.0668-0.184-0.47-0.289 0.0152-0.132 0.486-0.185 0.0883-0.46-0.201-0.194 0.216 0.25 0.436-0.0684 0.192-0.47 0.184 0.0168 0.29 0.486 0.132 0.0883 0.185-0.203 0.46 0.216 0.194 0.436-0.25 0.194 0.069 0.182 0.469 0.291-0.0163 0.13-0.486 0.185-0.0883 0.461 0.203 0.194-0.216-0.25-0.436 0.0674-0.194 0.469-0.182-0.0147-0.291-0.486-0.13-0.0884-0.185 0.202-0.462zm-0.653 0.715 0.0895 0.0519 0.0775 0.0703 0.0621 0.0839 0.0447 0.0933 0.0264 0.101 0.00428 0.103-0.0149 0.103-0.034 0.0978-0.0541 0.0905-0.0682 0.0766-0.0839 0.0621-0.0933 0.0447-0.101 0.0264-0.104 0.00586-0.103-0.0149-0.0978-0.034-0.0905-0.0541-0.076-0.0698-0.0627-0.0824-0.0447-0.0933-0.0256-0.102-0.00586-0.104 0.0149-0.103 0.034-0.0978 0.0535-0.089 0.0688-0.0781 0.0839-0.0621 0.0933-0.0447 0.102-0.0256 0.103-0.00428 0.103 0.0149 0.0978 0.034z" fill="url(#a)" fill-rule="evenodd" stroke="#000137" stroke-linecap="round" stroke-linejoin="round" stroke-width=".141"/><path transform="scale(.265)" d="m10 4.83l-0.332 0.0137a0.267 0.267 0 0 0 -0.244 0.199l-0.436 1.6-0.908 0.412-1.5-0.648a0.267 0.267 0 0 0 -0.303 0.0664l-0.213 0.242a0.267 0.267 0 0 0 -0.0371 0.311l0.826 1.45-0.354 0.908-1.51 0.605a0.267 0.267 0 0 0 -0.17 0.258l0.0215 0.348a0.267 0.267 0 0 0 0.191 0.242l1.6 0.436 0.42 0.916-0.656 1.49a0.267 0.267 0 0 0 0.0742 0.303l0.236 0.207a0.267 0.267 0 0 0 0.303 0.0293l1.42-0.805 0.99 0.348 0.561 1.51a0.267 0.267 0 0 0 0.25 0.178h0.326a0.267 0.267 0 0 0 0.258 -0.199l0.443-1.6 0.893-0.441 1.56 0.664a0.267 0.267 0 0 0 0.297 -0.0605l0.205-0.213a0.267 0.267 0 0 0 0.0293 -0.318l-0.818-1.42 0.303-0.961 1.55-0.611a0.267 0.267 0 0 0 0.162 -0.26l-0.00781-0.338a0.267 0.267 0 0 0 -0.199 -0.252l-1.57-0.398-0.451-0.93 0.658-1.52a0.267 0.267 0 0 0 -0.0605 -0.303l-0.234-0.221a0.267 0.267 0 0 0 -0.318 -0.0371l-1.42 0.818-0.938-0.332-0.629-1.53a0.267 0.267 0 0 0 -0.258 -0.162zm-0.133 0.613l0.568 1.39a0.267 0.267 0 0 0 0.162 0.154l1.16 0.414a0.267 0.267 0 0 0 0.221 -0.0215l1.28-0.73-0.592 1.37a0.267 0.267 0 0 0 0.00781 0.221l0.561 1.14a0.267 0.267 0 0 0 0.17 0.141l1.43 0.369-1.43 0.561a0.267 0.267 0 0 0 -0.154 0.17l-0.377 1.19a0.267 0.267 0 0 0 0.0234 0.223l0.707 1.22-1.37-0.582a0.267 0.267 0 0 0 -0.221 0.00586l-1.12 0.555a0.267 0.267 0 0 0 -0.133 0.162l-0.398 1.43-0.502-1.37a0.267 0.267 0 0 0 -0.162 -0.162l-1.23-0.428a0.267 0.267 0 0 0 -0.213 0.0215l-1.26 0.723 0.582-1.32a0.267 0.267 0 0 0 0 -0.221l-0.531-1.13a0.267 0.267 0 0 0 -0.17 -0.146l-1.47-0.406 1.39-0.555a0.267 0.267 0 0 0 0.146 -0.146l0.443-1.14a0.267 0.267 0 0 0 -0.0156 -0.229l-0.744-1.31 1.34 0.574a0.267 0.267 0 0 0 0.215 0l1.13-0.516a0.267 0.267 0 0 0 0.148 -0.17l0.398-1.46zm0.252 1.86c-1.56 0-2.83 1.27-2.83 2.83 0 1.56 1.27 2.83 2.83 2.83 1.56 0 2.83-1.27 2.83-2.83 0-1.56-1.27-2.83-2.83-2.83zm0 0.531c1.27 0 2.29 1.03 2.29 2.3 0 1.27-1.03 2.29-2.29 2.29-1.27 0-2.29-1.02-2.29-2.29 0-1.27 1.02-2.3 2.29-2.3z" color="#000000" color-rendering="auto" dominant-baseline="auto" fill="#729fcf" image-rendering="auto" shape-rendering="auto" solid-color="#000000" style="font-feature-settings:normal;font-variant-alternates:normal;font-variant-caps:normal;font-variant-ligatures:normal;font-variant-numeric:normal;font-variant-position:normal;isolation:auto;mix-blend-mode:normal;shape-padding:0;text-decoration-color:#000000;text-decoration-line:none;text-decoration-style:solid;text-indent:0;text-orientation:mixed;text-transform:none;white-space:normal"/><path d="m0.0706 0.0719v4.09h0.847v-1.69h0.847v-0.847h-0.847v-0.706h1.41v-0.847z" fill="url(#b)" fill-rule="evenodd" stroke="#280000" stroke-width=".141"/><path d="m0.141 0.143v3.95h0.707v-1.69h0.846v-0.705h-0.846v-0.848h1.41v-0.705zm0.143 0.141h1.83v0.424h-1.41v1.13h0.848v0.424h-0.848v1.69h-0.422z" color="#000000" color-rendering="auto" dominant-baseline="auto" fill="#ef2929" image-rendering="auto" shape-rendering="auto" solid-color="#000000" style="font-feature-settings:normal;font-variant-alternates:normal;font-variant-caps:normal;font-variant-ligatures:normal;font-variant-numeric:normal;font-variant-position:normal;isolation:auto;mix-blend-mode:normal;shape-padding:0;text-decoration-color:#000000;text-decoration-line:none;text-decoration-style:solid;text-indent:0;text-orientation:mixed;text-transform:none;white-space:normal"/></svg>
