<?xml version="1.0" encoding="UTF-8" standalone="no"?>
<svg
   xmlns:dc="http://purl.org/dc/elements/1.1/"
   xmlns:cc="http://creativecommons.org/ns#"
   xmlns:rdf="http://www.w3.org/1999/02/22-rdf-syntax-ns#"
   xmlns:svg="http://www.w3.org/2000/svg"
   xmlns="http://www.w3.org/2000/svg"
   xmlns:sodipodi="http://sodipodi.sourceforge.net/DTD/sodipodi-0.dtd"
   xmlns:inkscape="http://www.inkscape.org/namespaces/inkscape"
   version="1.1"
   viewBox="0 0 24 24"
   id="svg26"
   sodipodi:docname="icon-linux.svg"
   width="24"
   height="24"
   inkscape:version="0.92.4 (unknown)">
  <metadata
     id="metadata32">
    <rdf:RDF>
      <cc:Work
         rdf:about="">
        <dc:format>image/svg+xml</dc:format>
        <dc:type
           rdf:resource="http://purl.org/dc/dcmitype/StillImage" />
        <dc:title></dc:title>
      </cc:Work>
    </rdf:RDF>
  </metadata>
  <defs
     id="defs30" />
  <sodipodi:namedview
     pagecolor="#ffffff"
     bordercolor="#666666"
     borderopacity="1"
     objecttolerance="10"
     gridtolerance="10"
     guidetolerance="10"
     inkscape:pageopacity="0"
     inkscape:pageshadow="2"
     inkscape:window-width="1366"
     inkscape:window-height="704"
     id="namedview28"
     showgrid="false"
     inkscape:zoom="10.429825"
     inkscape:cx="15.899161"
     inkscape:cy="7.7387335"
     inkscape:window-x="0"
     inkscape:window-y="27"
     inkscape:window-maximized="1"
     inkscape:current-layer="svg26" />
  <g
     id="g851"
     transform="matrix(0.31268941,0,0,0.31268941,2.0018874,14.501236)"
     style="stroke-width:3.1980617">
    <path
       style="fill:#1f2932;stroke-width:3.1980617"
       inkscape:connector-curvature="0"
       id="path2"
       d="m 56.5,10.5 c -7.45e-4,-7.49e-4 -0.0016,-0.0016 -0.0016,-0.0022 -0.453,-0.511 -0.668,-1.46 -0.9,-2.47 -0.231,-1.01 -0.49,-2.1 -1.32,-2.8 -0.0016,-0.0016 -0.0038,-0.003 -0.0053,-0.0045 -0.164,-0.143 -0.333,-0.264 -0.502,-0.365 -0.17,-0.101 -0.342,-0.183 -0.515,-0.248 1.15,-3.41 0.7,-6.81 -0.462,-9.89 -1.43,-3.77 -3.92,-7.06 -5.82,-9.3 -2.13,-2.69 -4.21,-5.23 -4.17,-9 0.0633,-5.75 0.632,-16.4 -9.48,-16.4 -0.411,-7.46e-4 -0.84,0.0164 -1.29,0.0522 -11.3,0.909 -8.3,12.8 -8.47,16.8 -0.207,2.92 -0.799,5.23 -2.81,8.08 -2.36,2.81 -5.69,7.35 -7.26,12.1 -0.743,2.23 -1.1,4.51 -0.771,6.66 -0.102,0.0918 -0.199,0.188 -0.292,0.287 -0.693,0.741 -1.21,1.64 -1.78,2.24 -0.533,0.533 -1.29,0.735 -2.13,1.03 -0.836,0.3 -1.75,0.742 -2.31,1.81 0,0 0,8.2e-4 -7.46e-4,8.2e-4 -7.46e-4,0.0015 -0.00149,0.0037 -0.00298,0.0053 -0.262,0.489 -0.347,1.02 -0.347,1.55 0,0.495 0.0731,0.996 0.147,1.48 0.154,1 0.31,1.95 0.103,2.6 -0.661,1.81 -0.746,3.06 -0.281,3.96 0.467,0.909 1.43,1.31 2.51,1.54 2.17,0.452 5.1,0.34 7.42,1.57 l 0.199,-0.375 -0.197,0.376 c 2.48,1.3 4.99,1.75 6.99,1.3 1.45,-0.331 2.63,-1.2 3.24,-2.53 1.57,-0.0076 3.29,-0.671 6.04,-0.823 1.87,-0.151 4.2,0.664 6.89,0.515 0.0702,0.291 0.172,0.572 0.31,0.838 0.0016,0.0022 0.003,0.0053 0.0045,0.0076 1.04,2.08 2.97,3.03 5.04,2.87 2.06,-0.163 4.26,-1.38 6.03,-3.49 l -0.325,-0.273 0.328,0.27 c 1.69,-2.05 4.5,-2.9 6.36,-4.02 0.93,-0.561 1.68,-1.26 1.74,-2.28 0.058,-1.02 -0.541,-2.16 -1.92,-3.69 z" />
    <g
       transform="translate(0,-40)"
       style="fill:#ffffff;stroke-width:3.1980617"
       id="g10">
      <path
         inkscape:connector-curvature="0"
         id="path4"
         d="m 57.6,54.1 c -0.0359,0.63 -0.492,1.1 -1.33,1.6 -1.68,1.02 -4.67,1.9 -6.57,4.21 -1.65,1.97 -3.67,3.05 -5.45,3.19 -1.78,0.14 -3.31,-0.597 -4.21,-2.41 l -0.0016,-0.0037 -0.0022,-0.0045 c -0.561,-1.07 -0.328,-2.75 0.145,-4.52 0.472,-1.77 1.15,-3.6 1.24,-5.08 v -0.0045 c 0.0954,-1.9 0.202,-3.56 0.521,-4.84 0.319,-1.28 0.821,-2.14 1.71,-2.63 0.0418,-0.0223 0.0827,-0.044 0.124,-0.0642 0.101,1.64 0.915,3.32 2.35,3.68 1.57,0.415 3.84,-0.936 4.8,-2.04 0.192,-0.0076 0.378,-0.017 0.56,-0.0215 0.841,-0.02 1.55,0.0284 2.27,0.658 l 0.0022,0.0022 0.0022,0.0016 c 0.554,0.469 0.817,1.36 1.05,2.35 0.228,0.993 0.41,2.07 1.1,2.84 l 7.49e-4,7.48e-4 7.44e-4,0.0016 c 1.32,1.46 1.74,2.45 1.7,3.08 z"
         style="stroke-width:3.1980617" />
      <path
         inkscape:connector-curvature="0"
         id="path6"
         d="m 25.6,58.8 -7.46e-4,0.0045 v 0.0053 c -0.152,2 -1.28,3.08 -3.01,3.48 -1.73,0.395 -4.07,0.0016 -6.41,-1.22 -7.46e-4,0 -0.0015,-7.45e-4 -0.0022,-7.45e-4 -2.59,-1.37 -5.67,-1.23 -7.64,-1.65 -0.987,-0.206 -1.63,-0.516 -1.93,-1.09 -0.295,-0.577 -0.302,-1.58 0.326,-3.3 l 0.00298,-0.0076 0.00224,-0.0076 c 0.311,-0.959 0.0806,-2.01 -0.0701,-2.99 -0.151,-0.984 -0.225,-1.88 0.112,-2.5 l 0.00298,-0.006 c 0.43,-0.83 1.06,-1.13 1.85,-1.41 0.784,-0.281 1.71,-0.502 2.45,-1.24 l 0.0045,-0.0037 0.0037,-0.0037 c 0.678,-0.716 1.19,-1.61 1.78,-2.25 0.503,-0.537 1.01,-0.893 1.77,-0.898 0.009,8.2e-4 0.0172,8.2e-4 0.0261,0 0.133,8.2e-4 0.274,0.0121 0.423,0.0352 1.01,0.152 1.89,0.856 2.73,2 l 2.44,4.45 7.46e-4,0.0022 0.0015,0.0015 c 0.65,1.36 2.02,2.85 3.19,4.37 1.16,1.52 2.06,3.05 1.95,4.22 z"
         style="stroke-width:3.1980617" />
      <path
         inkscape:connector-curvature="0"
         id="path8"
         d="m 37.8,17.3 c -0.196,-0.384 -0.597,-0.75 -1.28,-1.03 l -0.0015,-7.46e-4 -0.0022,-7.46e-4 c -1.42,-0.607 -2.03,-0.651 -2.83,-1.17 -1.29,-0.828 -2.35,-1.12 -3.24,-1.11 -0.463,0.0015 -0.877,0.0836 -1.25,0.212 -1.08,0.371 -1.79,1.14 -2.24,1.57 l -7.46e-4,7.46e-4 c 0,7.46e-4 -7.46e-4,7.46e-4 -7.46e-4,0.0015 -0.088,0.0836 -0.201,0.16 -0.476,0.361 -0.277,0.202 -0.692,0.507 -1.29,0.954 -0.53,0.398 -0.703,0.915 -0.519,1.52 0.183,0.607 0.768,1.31 1.84,1.91 l 0.0015,0.0015 0.0022,7.47e-4 c 0.664,0.39 1.12,0.916 1.64,1.33 0.26,0.209 0.534,0.395 0.864,0.536 0.33,0.141 0.715,0.237 1.2,0.265 1.13,0.0657 1.96,-0.274 2.7,-0.695 0.736,-0.42 1.36,-0.934 2.08,-1.17 l 0.0015,-7.46e-4 0.0016,-7.47e-4 c 1.47,-0.458 2.51,-1.38 2.84,-2.26 0.164,-0.439 0.159,-0.855 -0.0366,-1.24 z"
         style="stroke-width:3.1980617" />
    </g>
    <path
       style="fill:#202020;stroke-width:5.11689854"
       inkscape:connector-curvature="0"
       id="path12"
       d="m 34.1,-20.5 c -1.17,0.608 -2.53,1.35 -3.98,1.35 -1.45,0 -2.59,-0.67 -3.42,-1.32 -0.412,-0.326 -0.746,-0.651 -0.998,-0.886 -0.438,-0.345 -0.385,-0.83 -0.205,-0.815 0.301,0.0376 0.347,0.434 0.537,0.612 0.257,0.24 0.578,0.551 0.968,0.86 0.779,0.617 1.82,1.22 3.12,1.22 1.3,0 2.81,-0.762 3.74,-1.28 0.524,-0.294 1.19,-0.821 1.74,-1.22 0.416,-0.306 0.401,-0.674 0.745,-0.634 0.344,0.0401 0.0895,0.407 -0.392,0.828 -0.481,0.42 -1.23,0.978 -1.85,1.3 z" />
    <g
       transform="translate(0,-40)"
       style="fill:#ffffff;stroke-width:3.1980617"
       id="g20">
      <path
         inkscape:connector-curvature="0"
         id="path14"
         d="m 51.9,44.4 c -0.162,-0.006 -0.322,-0.0053 -0.477,-0.0015 -0.0144,7.45e-4 -0.0284,7.45e-4 -0.0433,7.45e-4 0.401,-1.27 -0.486,-2.2 -2.85,-3.27 -2.45,-1.08 -4.4,-0.971 -4.73,1.22 -0.0208,0.114 -0.0381,0.231 -0.0507,0.349 -0.184,0.0642 -0.367,0.145 -0.552,0.245 -1.15,0.63 -1.78,1.77 -2.13,3.17 -0.348,1.4 -0.449,3.09 -0.545,4.99 v 0.0015 c -0.0589,0.956 -0.453,2.25 -0.851,3.62 -4.01,2.86 -9.58,4.1 -14.3,0.875 -0.32,-0.507 -0.688,-1.01 -1.07,-1.5 -0.242,-0.316 -0.49,-0.63 -0.736,-0.941 0.485,7.45e-4 0.898,-0.0791 1.23,-0.23 0.415,-0.189 0.706,-0.49 0.851,-0.878 0.288,-0.775 -0.0015,-1.87 -0.924,-3.12 -0.923,-1.25 -2.49,-2.66 -4.78,-4.07 v -7.48e-4 c -1.69,-1.05 -2.63,-2.34 -3.07,-3.73 -0.442,-1.4 -0.38,-2.91 -0.0395,-4.4 0.654,-2.86 2.33,-5.65 3.4,-7.39 0.288,-0.212 0.103,0.394 -1.08,2.6 -1.06,2.02 -3.05,6.67 -0.33,10.3 0.0731,-2.58 0.69,-5.22 1.73,-7.69 1.51,-3.42 4.67,-9.35 4.92,-14.1 0.13,0.094 0.574,0.394 0.771,0.507 7.46e-4,7.46e-4 7.46e-4,7.46e-4 0.0015,7.46e-4 0.579,0.341 1.01,0.839 1.58,1.29 0.565,0.454 1.27,0.845 2.34,0.907 0.102,0.006 0.202,0.009 0.3,0.009 1.1,0 1.95,-0.358 2.67,-0.766 0.775,-0.443 1.39,-0.934 1.98,-1.13 7.46e-4,-7.46e-4 0.0015,-7.46e-4 0.0022,-7.46e-4 1.24,-0.388 2.23,-1.07 2.79,-1.87 0.964,3.8 3.21,9.29 4.65,12 0.766,1.42 2.29,4.44 2.95,8.08 0.417,-0.0128 0.877,0.0477 1.37,0.174 1.72,-4.46 -1.46,-9.27 -2.91,-10.6 -0.587,-0.57 -0.616,-0.825 -0.324,-0.813 1.58,1.4 3.65,4.2 4.4,7.37 0.344,1.44 0.417,2.96 0.0484,4.46 0.18,0.0746 0.363,0.156 0.549,0.244 2.76,1.35 3.78,2.52 3.29,4.11 z"
         style="stroke-width:3.1980617" />
      <path
         inkscape:connector-curvature="0"
         id="path16"
         d="m 37.9,12.9 c 0.006,0.753 -0.124,1.39 -0.41,2.05 -0.163,0.373 -0.35,0.686 -0.574,0.958 -0.0762,-0.0366 -0.155,-0.0716 -0.237,-0.105 -0.284,-0.122 -0.536,-0.222 -0.761,-0.307 -0.225,-0.085 -0.401,-0.143 -0.583,-0.206 0.131,-0.159 0.39,-0.346 0.487,-0.581 0.146,-0.354 0.218,-0.701 0.231,-1.11 0,-0.0164 0.0052,-0.0306 0.0052,-0.05 0.0082,-0.395 -0.044,-0.733 -0.16,-1.08 -0.121,-0.363 -0.275,-0.624 -0.497,-0.842 -0.223,-0.217 -0.445,-0.316 -0.713,-0.325 -0.0127,-7.46e-4 -0.0246,-7.46e-4 -0.0373,-7.46e-4 -0.251,7.46e-4 -0.469,0.0873 -0.694,0.275 -0.237,0.198 -0.412,0.451 -0.558,0.803 -0.145,0.352 -0.217,0.701 -0.231,1.12 -0.0022,0.0164 -0.0022,0.0306 -0.0022,0.047 -0.0052,0.228 0.0097,0.437 0.0448,0.64 -0.513,-0.256 -1.17,-0.442 -1.62,-0.551 -0.0261,-0.196 -0.041,-0.398 -0.0455,-0.61 v -0.0574 c -0.0082,-0.751 0.115,-1.39 0.404,-2.05 0.289,-0.654 0.646,-1.12 1.15,-1.51 0.504,-0.382 0.998,-0.557 1.58,-0.563 h 0.0276 c 0.573,0 1.06,0.169 1.57,0.533 0.511,0.372 0.88,0.836 1.18,1.48 0.291,0.633 0.431,1.25 0.445,1.98 -7.2e-5,0.0194 -7.2e-5,0.0358 0.0053,0.0552 z"
         style="stroke-width:3.1980617" />
      <path
         inkscape:connector-curvature="0"
         id="path18"
         d="m 29.2,13.7 c -0.0754,0.0216 -0.148,0.0448 -0.221,0.0694 -0.41,0.142 -0.736,0.298 -1.05,0.506 0.0306,-0.218 0.0351,-0.439 0.0112,-0.686 -0.0022,-0.0134 -0.0022,-0.0246 -0.0022,-0.038 -0.0328,-0.328 -0.102,-0.602 -0.218,-0.88 -0.123,-0.289 -0.261,-0.492 -0.442,-0.649 -0.164,-0.142 -0.319,-0.207 -0.491,-0.206 -0.0172,0 -0.0351,7.46e-4 -0.053,0.0022 -0.192,0.0164 -0.352,0.11 -0.504,0.295 -0.151,0.184 -0.25,0.412 -0.322,0.715 -0.0716,0.302 -0.0903,0.599 -0.0604,0.94 0,0.0134 0.003,0.0246 0.003,0.038 0.0328,0.331 0.0992,0.605 0.217,0.883 0.121,0.286 0.261,0.489 0.442,0.646 0.0306,0.0261 0.0604,0.05 0.0903,0.0709 -0.188,0.145 -0.314,0.249 -0.47,0.362 -0.0992,0.0724 -0.217,0.159 -0.354,0.26 -0.299,-0.281 -0.533,-0.633 -0.737,-1.1 -0.242,-0.549 -0.371,-1.1 -0.41,-1.75 v -0.0052 c -0.0358,-0.649 0.0276,-1.21 0.206,-1.78 0.179,-0.577 0.418,-0.995 0.765,-1.34 0.346,-0.344 0.695,-0.517 1.12,-0.539 0.0328,-0.00149 0.0649,-0.00224 0.097,-0.00224 0.381,7.46e-4 0.721,0.128 1.07,0.409 0.382,0.305 0.671,0.695 0.912,1.25 0.242,0.55 0.372,1.1 0.407,1.75 v 0.0052 c 0.0172,0.272 0.0149,0.529 -0.0067,0.777 z"
         style="stroke-width:3.1980617" />
    </g>
    <path
       style="fill:#202020;stroke-width:3.1980617"
       inkscape:connector-curvature="0"
       id="path22"
       d="m 31.2,-24.8 c 0.0483,0.155 0.298,0.129 0.442,0.204 0.127,0.0652 0.228,0.208 0.371,0.212 0.136,0.0039 0.347,-0.047 0.365,-0.182 0.0234,-0.178 -0.237,-0.291 -0.404,-0.356 -0.215,-0.0839 -0.491,-0.126 -0.693,-0.0142 -0.0463,0.0257 -0.0968,0.086 -0.081,0.137 z" />
    <path
       style="fill:#202020;stroke-width:3.1980617"
       inkscape:connector-curvature="0"
       id="path24"
       d="m 29.7,-24.8 c -0.0483,0.155 -0.298,0.129 -0.442,0.204 -0.127,0.0652 -0.228,0.208 -0.371,0.212 -0.136,0.0039 -0.347,-0.047 -0.365,-0.182 -0.0234,-0.178 0.237,-0.291 0.404,-0.356 0.215,-0.0839 0.491,-0.126 0.693,-0.0142 0.0463,0.0257 0.0968,0.086 0.081,0.137 z" />
  </g>
</svg>
