<?xml version="1.0" encoding="UTF-8" standalone="no"?>
<svg
   xmlns:dc="http://purl.org/dc/elements/1.1/"
   xmlns:cc="http://creativecommons.org/ns#"
   xmlns:rdf="http://www.w3.org/1999/02/22-rdf-syntax-ns#"
   xmlns:svg="http://www.w3.org/2000/svg"
   xmlns="http://www.w3.org/2000/svg"
   xmlns:sodipodi="http://sodipodi.sourceforge.net/DTD/sodipodi-0.dtd"
   xmlns:inkscape="http://www.inkscape.org/namespaces/inkscape"
   width="32"
   height="32"
   version="1.1"
   viewBox="0 0 8.4666668 8.4666665"
   id="svg8"
   sodipodi:docname="icon-facebook-dark.svg"
   inkscape:version="0.92.4 (unknown)">
  <defs
     id="defs12" />
  <sodipodi:namedview
     pagecolor="#ffffff"
     bordercolor="#666666"
     borderopacity="1"
     objecttolerance="10"
     gridtolerance="10"
     guidetolerance="10"
     inkscape:pageopacity="0"
     inkscape:pageshadow="2"
     inkscape:window-width="1366"
     inkscape:window-height="704"
     id="namedview10"
     showgrid="false"
     inkscape:zoom="7.375"
     inkscape:cx="24.40678"
     inkscape:cy="10.305084"
     inkscape:window-x="0"
     inkscape:window-y="27"
     inkscape:window-maximized="1"
     inkscape:current-layer="svg8" />
  <metadata
     id="metadata2">
    <rdf:RDF>
      <cc:Work
         rdf:about="">
        <dc:format>image/svg+xml</dc:format>
        <dc:type
           rdf:resource="http://purl.org/dc/dcmitype/StillImage" />
        <dc:title />
      </cc:Work>
    </rdf:RDF>
  </metadata>
  <path
     style="fill:#404040;stroke-width:0.38482481;fill-opacity:1"
     inkscape:connector-curvature="0"
     id="path4"
     d="M 4.2329041,4.293064e-4 C 1.8951498,5.2915941e-4 1.1332788e-4,1.8955743 4.792e-6,4.2333286 1.0247429e-4,6.5710829 1.8951498,8.4661194 4.2329041,8.4662279 6.570984,8.466597 8.4665632,6.5714086 8.4666717,4.2333286 8.4665632,1.8952487 6.570984,1.0369876e-4 4.2329041,4.293064e-4 Z M 4.7382472,1.4828124 H 5.4778866 V 2.4284855 H 5.0210808 c -0.3527742,0 -0.3761419,0.136918 -0.3761419,0.3829254 L 4.6439512,3.2876664 H 5.4972928 L 5.3983081,4.2333395 H 4.6188577 V 6.9828789 H 3.502132 V 4.2333395 H 2.9860222 V 3.2876664 H 3.502132 V 2.7229867 c 0,-0.7692046 0.3302639,-1.2401309 1.2362237,-1.2401309 z" />
</svg>
