<?xml version="1.0" encoding="UTF-8" standalone="no"?>
<!-- Created with Inkscape (http://www.inkscape.org/) -->

<svg
   xmlns:dc="http://purl.org/dc/elements/1.1/"
   xmlns:cc="http://creativecommons.org/ns#"
   xmlns:rdf="http://www.w3.org/1999/02/22-rdf-syntax-ns#"
   xmlns:svg="http://www.w3.org/2000/svg"
   xmlns="http://www.w3.org/2000/svg"
   xmlns:sodipodi="http://sodipodi.sourceforge.net/DTD/sodipodi-0.dtd"
   xmlns:inkscape="http://www.inkscape.org/namespaces/inkscape"
   width="32"
   height="32"
   viewBox="0 0 8.4666665 8.4666669"
   version="1.1"
   id="svg8"
   inkscape:version="0.92.4 (unknown)"
   sodipodi:docname="icon-irc-dark.svg">
  <defs
     id="defs2" />
  <sodipodi:namedview
     id="base"
     pagecolor="#ffffff"
     bordercolor="#666666"
     borderopacity="1.0"
     inkscape:pageopacity="0.0"
     inkscape:pageshadow="2"
     inkscape:zoom="11.2"
     inkscape:cx="11.661596"
     inkscape:cy="15.972135"
     inkscape:document-units="px"
     inkscape:current-layer="layer1"
     showgrid="false"
     units="px"
     inkscape:window-width="1366"
     inkscape:window-height="704"
     inkscape:window-x="0"
     inkscape:window-y="27"
     inkscape:window-maximized="1" />
  <metadata
     id="metadata5">
    <rdf:RDF>
      <cc:Work
         rdf:about="">
        <dc:format>image/svg+xml</dc:format>
        <dc:type
           rdf:resource="http://purl.org/dc/dcmitype/StillImage" />
        <dc:title />
      </cc:Work>
    </rdf:RDF>
  </metadata>
  <g
     inkscape:label="Layer 1"
     inkscape:groupmode="layer"
     id="layer1"
     transform="translate(0,-288.53333)">
    <path
       style="opacity:1;fill:#404040;fill-opacity:1;stroke:none;stroke-width:17.17403793;stroke-miterlimit:4;stroke-dasharray:34.34807835, 34.34807835000000154;stroke-dashoffset:0;stroke-opacity:1;paint-order:stroke fill markers"
       d="M 16 0 A 16.000001 16.000001 0 0 0 0 16 A 16.000001 16.000001 0 0 0 16 32 A 16.000001 16.000001 0 0 0 32 16 A 16.000001 16.000001 0 0 0 16 0 z M 14.025391 10.490234 C 14.193201 10.490234 14.344267 10.517572 14.478516 10.570312 C 14.617559 10.623053 14.736139 10.697077 14.832031 10.792969 C 14.927923 10.888861 15.001947 11.004423 15.054688 11.138672 C 15.107428 11.268126 15.132812 11.412091 15.132812 11.570312 C 15.132813 11.728534 15.107428 11.873564 15.054688 12.007812 C 15.001947 12.137267 14.927923 12.252829 14.832031 12.353516 C 14.736139 12.449408 14.617559 12.523431 14.478516 12.576172 C 14.344267 12.628912 14.193201 12.65625 14.025391 12.65625 C 13.85758 12.65625 13.70545 12.628912 13.566406 12.576172 C 13.432158 12.523431 13.316595 12.449408 13.220703 12.353516 C 13.124811 12.252829 13.050787 12.137267 12.998047 12.007812 C 12.945306 11.873564 12.917969 11.728534 12.917969 11.570312 C 12.917969 11.412091 12.945306 11.268126 12.998047 11.138672 C 13.050787 11.004423 13.124811 10.888861 13.220703 10.792969 C 13.316595 10.697077 13.432158 10.623053 13.566406 10.570312 C 13.70545 10.517572 13.85758 10.490234 14.025391 10.490234 z M 7.4160156 10.894531 L 8.6679688 10.894531 L 8.2285156 13.884766 L 9.1933594 13.884766 L 9.6308594 10.894531 L 10.890625 10.894531 L 10.451172 13.884766 L 11.738281 13.884766 L 11.738281 15.136719 L 10.271484 15.136719 L 9.96875 17.171875 L 11.279297 17.171875 L 11.279297 18.416016 L 9.7890625 18.416016 L 9.3574219 21.365234 L 8.0996094 21.365234 L 8.53125 18.416016 L 7.5683594 18.416016 L 7.1425781 21.365234 L 5.8847656 21.365234 L 6.3164062 18.416016 L 5 18.416016 L 5 17.171875 L 6.4960938 17.171875 L 6.7988281 15.136719 L 5.4453125 15.136719 L 5.4453125 13.884766 L 6.9785156 13.884766 L 7.4160156 10.894531 z M 19.929688 13.439453 C 20.020785 13.439453 20.119128 13.449572 20.224609 13.46875 C 20.334885 13.483134 20.425063 13.504436 20.492188 13.533203 L 20.470703 15.546875 C 20.379606 15.537286 20.265108 15.526103 20.130859 15.511719 C 20.001405 15.497335 19.888861 15.490234 19.792969 15.490234 C 19.500498 15.490234 19.264226 15.551122 19.082031 15.675781 C 18.899837 15.800441 18.759954 15.982926 18.664062 16.222656 L 18.664062 21.365234 L 16.623047 21.365234 L 16.623047 13.583984 L 18.542969 13.583984 L 18.599609 14.425781 C 18.753036 14.114133 18.939605 13.871824 19.160156 13.699219 C 19.385502 13.526613 19.642012 13.439453 19.929688 13.439453 z M 24.216797 13.439453 C 24.633927 13.439453 25.013099 13.506376 25.353516 13.640625 C 25.698726 13.770079 25.990739 13.963748 26.230469 14.222656 C 26.474993 14.47677 26.661562 14.795055 26.791016 15.173828 C 26.925264 15.552601 26.995205 15.989643 27 16.488281 L 25.087891 16.488281 C 25.083096 16.051973 25.010137 15.717357 24.871094 15.482422 C 24.73205 15.247487 24.502879 15.128906 24.181641 15.128906 C 23.956295 15.128906 23.774874 15.174528 23.640625 15.265625 C 23.511171 15.356722 23.411763 15.492522 23.339844 15.669922 C 23.272719 15.842527 23.227098 16.057498 23.203125 16.316406 C 23.183947 16.57052 23.173828 16.86555 23.173828 17.201172 L 23.173828 17.761719 C 23.173828 18.102135 23.183947 18.401248 23.203125 18.660156 C 23.222303 18.91427 23.264907 19.128176 23.332031 19.300781 C 23.40395 19.473387 23.506376 19.60315 23.640625 19.689453 C 23.774874 19.775756 23.957359 19.818359 24.1875 19.818359 C 24.470381 19.818359 24.68837 19.733152 24.841797 19.560547 C 25.000019 19.383147 25.083096 19.085099 25.087891 18.667969 L 27 18.667969 C 26.995205 19.109072 26.921182 19.506528 26.777344 19.861328 C 26.633506 20.211334 26.436819 20.509382 26.1875 20.753906 C 25.942976 20.998431 25.652028 21.184999 25.316406 21.314453 C 24.980785 21.443907 24.618831 21.509766 24.230469 21.509766 C 23.707858 21.509766 23.253597 21.425623 22.865234 21.257812 C 22.476872 21.090002 22.153439 20.847693 21.894531 20.53125 C 21.640418 20.210012 21.447813 19.816638 21.318359 19.351562 C 21.1937 18.886487 21.130859 18.356249 21.130859 17.761719 L 21.130859 17.201172 C 21.130859 16.606642 21.1937 16.076404 21.318359 15.611328 C 21.447813 15.141458 21.640418 14.747019 21.894531 14.425781 C 22.148645 14.104543 22.46906 13.859217 22.857422 13.691406 C 23.245784 13.523595 23.698981 13.439453 24.216797 13.439453 z M 13.011719 13.583984 L 15.054688 13.583984 L 15.054688 21.365234 L 13.011719 21.365234 L 13.011719 13.583984 z M 8.0488281 15.136719 L 7.7480469 17.171875 L 8.7109375 17.171875 L 9.0136719 15.136719 L 8.0488281 15.136719 z "
       id="path815"
       transform="matrix(0.26458333,0,0,0.26458333,0,288.53333)" />
  </g>
</svg>
