<?xml version="1.0" encoding="UTF-8" standalone="no"?>
<svg
   xmlns:dc="http://purl.org/dc/elements/1.1/"
   xmlns:cc="http://creativecommons.org/ns#"
   xmlns:rdf="http://www.w3.org/1999/02/22-rdf-syntax-ns#"
   xmlns:svg="http://www.w3.org/2000/svg"
   xmlns="http://www.w3.org/2000/svg"
   xmlns:sodipodi="http://sodipodi.sourceforge.net/DTD/sodipodi-0.dtd"
   xmlns:inkscape="http://www.inkscape.org/namespaces/inkscape"
   width="24"
   height="24"
   version="1.1"
   viewBox="0 0 24 24"
   id="svg4"
   sodipodi:docname="icon-apple.svg"
   inkscape:version="0.92.4 (unknown)">
  <metadata
     id="metadata10">
    <rdf:RDF>
      <cc:Work
         rdf:about="">
        <dc:format>image/svg+xml</dc:format>
        <dc:type
           rdf:resource="http://purl.org/dc/dcmitype/StillImage" />
        <dc:title></dc:title>
      </cc:Work>
    </rdf:RDF>
  </metadata>
  <defs
     id="defs8" />
  <sodipodi:namedview
     pagecolor="#ffffff"
     bordercolor="#666666"
     borderopacity="1"
     objecttolerance="10"
     gridtolerance="10"
     guidetolerance="10"
     inkscape:pageopacity="0"
     inkscape:pageshadow="2"
     inkscape:window-width="1366"
     inkscape:window-height="704"
     id="namedview6"
     showgrid="false"
     inkscape:zoom="3.6875"
     inkscape:cx="32"
     inkscape:cy="32"
     inkscape:window-x="0"
     inkscape:window-y="27"
     inkscape:window-maximized="1"
     inkscape:current-layer="svg4" />
  <path
     d="m 20.051832,17.591047 c -0.301631,0.697034 -0.659525,1.344056 -1.072118,1.93169 -0.565755,0.803307 -1.025234,1.365936 -1.378439,1.672255 -0.550126,0.506366 -1.144011,0.765799 -1.77853,0.781428 -0.453228,0 -1.003353,-0.129717 -1.637872,-0.390714 -0.640771,-0.261622 -1.225279,-0.390714 -1.766027,-0.390714 -0.565753,0 -1.169016,0.129717 -1.812912,0.390714 C 9.9589115,21.848266 9.4369175,21.985797 9.0399525,21.9983 8.4335635,22.02408 7.8271763,21.756683 7.2270395,21.194992 6.8425771,20.860541 6.3612176,20.282284 5.7767096,19.463348 5.1578188,18.591275 4.6483279,17.578544 4.2451112,16.425157 3.8168888,15.177998 3.6043405,13.9746 3.6043405,12.799332 c 0,-1.331553 0.2885031,-2.48494 0.8658219,-3.4382823 0.4532281,-0.775176 1.059616,-1.3909413 1.8129124,-1.837918 0.756422,-0.4501023 1.578484,-0.6782793 2.4505577,-0.6939078 0.481359,0 1.115879,0.1497215 1.8973065,0.4407252 0.784554,0.294442 1.284668,0.443851 1.506593,0.443851 0.165037,0 0.722039,-0.1744147 1.672256,-0.5219937 0.893953,-0.3219483 1.650375,-0.4563539 2.272391,-0.4032168 1.672254,0.1353433 2.94442,0.7970563 3.782109,1.9910781 -1.497215,0.909582 -2.238009,2.1786203 -2.225505,3.8133673 0.01353,1.272165 0.475108,2.331781 1.378438,3.156968 0.412594,0.390714 0.872073,0.690783 1.378438,0.906457 -0.110962,0.321947 -0.227239,0.628267 -0.353205,0.92521 z M 16.207208,2.4000913 c 0,0.9971019 -0.362583,1.9316895 -1.090874,2.79126 -0.875199,1.0252332 -1.931689,1.6128669 -3.085076,1.5190956 -0.0146,-0.1200274 -0.0231,-0.2463061 -0.0231,-0.3782111 0,-0.9564675 0.41572,-1.978575 1.156513,-2.8162656 0.368834,-0.4250967 0.840817,-0.7783021 1.412822,-1.0596161 0.568879,-0.276938 1.106501,-0.4313481 1.612866,-0.4563538 0.01473,0.1331553 0.02097,0.2663106 0.02097,0.400091 z"
     id="path2"
     inkscape:connector-curvature="0"
     style="fill:#1f2932;stroke-width:0.99999994" />
</svg>
