<?xml version="1.0" encoding="UTF-8" standalone="no"?>
<!-- Created with Inkscape (http://www.inkscape.org/) -->

<svg
   xmlns:dc="http://purl.org/dc/elements/1.1/"
   xmlns:cc="http://creativecommons.org/ns#"
   xmlns:rdf="http://www.w3.org/1999/02/22-rdf-syntax-ns#"
   xmlns:svg="http://www.w3.org/2000/svg"
   xmlns="http://www.w3.org/2000/svg"
   xmlns:sodipodi="http://sodipodi.sourceforge.net/DTD/sodipodi-0.dtd"
   xmlns:inkscape="http://www.inkscape.org/namespaces/inkscape"
   width="32"
   height="32"
   viewBox="0 0 8.4666665 8.4666669"
   version="1.1"
   id="svg8"
   inkscape:version="0.92.4 (unknown)"
   sodipodi:docname="icon-github.svg">
  <defs
     id="defs2" />
  <sodipodi:namedview
     id="base"
     pagecolor="#ffffff"
     bordercolor="#666666"
     borderopacity="1.0"
     inkscape:pageopacity="0.0"
     inkscape:pageshadow="2"
     inkscape:zoom="7.9195959"
     inkscape:cx="27.400182"
     inkscape:cy="12.658911"
     inkscape:document-units="px"
     inkscape:current-layer="layer1"
     showgrid="false"
     units="px"
     inkscape:window-width="1366"
     inkscape:window-height="704"
     inkscape:window-x="0"
     inkscape:window-y="27"
     inkscape:window-maximized="1" />
  <metadata
     id="metadata5">
    <rdf:RDF>
      <cc:Work
         rdf:about="">
        <dc:format>image/svg+xml</dc:format>
        <dc:type
           rdf:resource="http://purl.org/dc/dcmitype/StillImage" />
        <dc:title></dc:title>
      </cc:Work>
    </rdf:RDF>
  </metadata>
  <g
     inkscape:label="Layer 1"
     inkscape:groupmode="layer"
     id="layer1"
     transform="translate(0,-288.53332)">
    <path
       d="m 4.2329615,288.53332 c -2.3373785,0 -4.2329579,1.89532 -4.2329579,4.23348 0,1.87011 1.2128693,3.45695 2.8950854,4.017 0.211804,0.0387 0.288989,-0.092 0.288989,-0.20427 0,-0.10058 -0.00364,-0.3667 -0.00572,-0.71988 -1.1775252,0.25573 -1.4259724,-0.56758 -1.4259724,-0.56758 -0.1925726,-0.4891 -0.4701265,-0.6193 -0.4701265,-0.6193 -0.3843654,-0.26248 0.029107,-0.25728 0.029107,-0.25728 0.424907,0.0299 0.6484055,0.43634 0.6484055,0.43634 0.3776087,0.64685 0.9909301,0.45999 1.2321007,0.35162 0.038463,-0.2734 0.1478727,-0.45999 0.2687179,-0.56576 -0.9399931,-0.10708 -1.9283244,-0.47012 -1.9283244,-2.09231 0,-0.46234 0.165025,-0.83994 0.4358221,-1.13595 -0.043661,-0.10707 -0.1889342,-0.53743 0.041581,-1.12035 0,0 0.3552588,-0.11383 1.1640115,0.43375 0.3375868,-0.0938 0.6998624,-0.1406 1.059799,-0.14242 0.3596765,9.7e-4 0.7216924,0.0486 1.059799,0.14242 0.8082324,-0.54758 1.1629714,-0.43375 1.1629714,-0.43375 0.2310348,0.58292 0.085761,1.01328 0.042359,1.12035 0.2713168,0.29601 0.4350424,0.67361 0.4350424,1.13595 0,1.62634 -0.9898898,1.98421 -1.9327419,2.08894 0.1517709,0.13071 0.2871692,0.38903 0.2871692,0.78405 0,0.56577 -0.00523,1.02238 -0.00523,1.16116 0,0.1133 0.076406,0.24506 0.2910679,0.20374 1.6809168,-0.56108 2.8927467,-2.14662 2.8927467,-4.01647 0,-2.33816 -1.8955799,-4.23348 -4.2337376,-4.23348"
       style="fill:#ffffff;fill-opacity:1;fill-rule:evenodd;stroke:none;stroke-width:0.0259882"
       id="path16"
       inkscape:connector-curvature="0" />
  </g>
</svg>
