<?xml version="1.0" encoding="UTF-8" standalone="no"?>
<!-- Created with Inkscape (http://www.inkscape.org/) -->

<svg
   xmlns:dc="http://purl.org/dc/elements/1.1/"
   xmlns:cc="http://creativecommons.org/ns#"
   xmlns:rdf="http://www.w3.org/1999/02/22-rdf-syntax-ns#"
   xmlns:svg="http://www.w3.org/2000/svg"
   xmlns="http://www.w3.org/2000/svg"
   xmlns:sodipodi="http://sodipodi.sourceforge.net/DTD/sodipodi-0.dtd"
   xmlns:inkscape="http://www.inkscape.org/namespaces/inkscape"
   width="64"
   height="64"
   viewBox="0 0 16.933333 16.933334"
   version="1.1"
   id="svg8"
   inkscape:version="0.92.3 (2405546, 2018-03-11)"
   sodipodi:docname="icon_reddit.svg">
  <defs
     id="defs2" />
  <sodipodi:namedview
     id="base"
     pagecolor="#ffffff"
     bordercolor="#666666"
     borderopacity="1.0"
     inkscape:pageopacity="0.0"
     inkscape:pageshadow="2"
     inkscape:zoom="3.959798"
     inkscape:cx="-26.973253"
     inkscape:cy="8.5513324"
     inkscape:document-units="px"
     inkscape:current-layer="layer1"
     showgrid="false"
     units="px"
     width="32px"
     inkscape:window-width="1366"
     inkscape:window-height="705"
     inkscape:window-x="-8"
     inkscape:window-y="-8"
     inkscape:window-maximized="1" />
  <metadata
     id="metadata5">
    <rdf:RDF>
      <cc:Work
         rdf:about="">
        <dc:format>image/svg+xml</dc:format>
        <dc:type
           rdf:resource="http://purl.org/dc/dcmitype/StillImage" />
        <dc:title />
      </cc:Work>
    </rdf:RDF>
  </metadata>
  <g
     inkscape:label="Layer 1"
     inkscape:groupmode="layer"
     id="layer1"
     transform="translate(0,-280.06665)">
    <g
       style="fill:#ffffff;fill-opacity:1;stroke-width:1.00005126"
       id="g2241"
       transform="matrix(1.3568376,0,0,1.3566985,-141.11111,155.74184)">
      <path
         id="path2239"
         d="m 110.24,93.978 a 3.9004,3.9004 0 0 0 -3.9,3.9 3.9004,3.9004 0 0 0 3.9,3.9008 3.9004,3.9004 0 0 0 3.9,-3.9008 3.9004,3.9004 0 0 0 -3.9,-3.9 z m 0.30321,1.6741 0.90801,0.18128 c 0.0581,-0.10136 0.16299,-0.16887 0.27995,-0.18128 0.20353,-0.02204 0.38621,0.12542 0.4083,0.32887 0.022,0.20353 -0.12527,0.38624 -0.32889,0.40828 -0.20351,0.02204 -0.3862,-0.12526 -0.40828,-0.32887 l -0.79251,-0.16685 -0.24064,1.1559 c 0.50931,0.01087 1.0052,0.16825 1.427,0.45561 0.0958,-0.09112 0.22191,-0.14529 0.35455,-0.14995 0.29935,-0.01086 0.54968,0.22296 0.5607,0.52138 0.003,0.20814 -0.11316,0.39954 -0.2992,0.49252 0.003,0.05433 0.003,0.1085 0,0.16283 0,0.8308 -0.96742,1.5056 -2.1602,1.5056 -1.19278,0 -2.1594,-0.67578 -2.1594,-1.5056 -0.003,-0.05433 -0.003,-0.1085 0,-0.16283 -0.0543,-0.0239 -0.10353,-0.05821 -0.14591,-0.09779 -0.21827,-0.20444 -0.22855,-0.54707 -0.0241,-0.76443 0.20445,-0.21824 0.54709,-0.22776 0.76445,-0.02328 0.42733,-0.28921 0.92966,-0.44866 1.4454,-0.45642 l 0.27352,-1.2858 v -0.0016 c 0.014,-0.06271 0.0754,-0.10136 0.13722,-0.08739 z m -1.1663,2.2243 c -0.20448,0 -0.3706,0.16693 -0.3706,0.3714 0,0.20449 0.16519,0.36984 0.3706,0.37139 0.20447,0 0.37138,-0.1669 0.37138,-0.37139 0,-0.20448 -0.16691,-0.3714 -0.37138,-0.3714 z m 1.715,0.01242 c -0.20448,0 -0.37058,0.16693 -0.37058,0.3714 0,0.20448 0.1661,0.37139 0.37058,0.37139 l -0.003,0.01397 h 0.0185 c 0.20449,-0.0078 0.36358,-0.18054 0.35535,-0.38502 0,-0.20448 -0.16691,-0.3714 -0.37138,-0.3714 z m -1.6877,1.2136 c -0.0225,0 -0.0441,0.0078 -0.0626,0.02251 -0.0424,0.03508 -0.0494,0.09872 -0.014,0.1411 0.26342,0.19797 0.5863,0.29954 0.91604,0.28556 0.32974,0.01397 0.65183,-0.08755 0.91524,-0.28556 V 99.28 c 0.0405,-0.03974 0.0411,-0.10633 0.002,-0.14684 -0.0396,-0.0402 -0.10539,-0.04113 -0.14591,-0.0016 -0.22566,0.16125 -0.49857,0.24173 -0.77487,0.22621 -0.2763,0.01242 -0.54795,-0.07032 -0.77085,-0.23342 -0.0189,-0.01552 -0.0418,-0.02251 -0.0641,-0.02251 z"
         inkscape:connector-curvature="0"
         style="fill:#ffffff;fill-opacity:1;stroke-width:0.35464817" />
    </g>
  </g>
</svg>
