<svg width="64" height="64" version="1.1" viewBox="0 0 16.933 16.933" xmlns="http://www.w3.org/2000/svg"><g transform="matrix(.0197 0 0 .0197 1.45 -.0197)" stroke-width="21.4"><g stroke-width="21.4"><path d="m684 678c-0.01-0.01-0.021-0.021-0.021-0.03-6.07-6.85-8.96-19.6-12.1-33.1-3.1-13.5-6.57-28.1-17.7-37.6-0.021-0.021-0.051-0.04-0.07-0.061-2.2-1.92-4.46-3.54-6.73-4.89-2.28-1.35-4.59-2.45-6.9-3.32 15.4-45.8 9.38-91.3-6.2-132-19.1-50.5-52.5-94.6-78-125-28.5-36-56.4-70.2-55.9-121 0.849-77 8.47-220-127-220-5.51-0.01-11.3 0.22-17.2 0.7-151 12.2-111 172-114 226-2.77 39.2-10.7 70.1-37.7 108-31.6 37.6-76.2 98.6-97.3 162-9.96 29.9-14.7 60.4-10.3 89.3-1.37 1.23-2.67 2.52-3.92 3.84-9.29 9.93-16.2 21.9-23.8 30-7.15 7.14-17.3 9.85-28.5 13.9-11.2 4.02-23.5 9.94-31 24.3 0 0 0 0.011-0.01 0.011-0.01 0.02-0.02 0.05-0.04 0.069-3.51 6.55-4.65 13.6-4.65 20.8 0 6.63 0.98 13.4 1.97 19.8 2.06 13.5 4.15 26.2 1.38 34.8-8.86 24.2-10 41-3.76 53.1 6.26 12.2 19.1 17.6 33.6 20.6 29.1 6.06 68.4 4.56 99.4 21l2.67-5.03-2.64 5.04c33.2 17.4 66.9 23.5 93.7 17.4 19.5-4.44 35.3-16 43.4-33.9 21-0.1 44-9 81-11 25-2.02 56.3 8.9 92.3 6.9 0.94 3.9 2.3 7.66 4.16 11.2 0.021 0.029 0.04 0.069 0.061 0.1 13.9 27.9 39.9 40.7 67.5 38.5 27.7-2.18 57.1-18.5 80.8-46.8l-4.36-3.66 4.39 3.62c22.7-27.5 60.3-38.9 85.2-53.9 12.5-7.52 22.6-16.9 23.4-30.6 0.778-13.7-7.25-29-25.7-49.5z" fill="#1f2932"/><g fill="#fff"><path d="m698 727c-0.48 8.44-6.59 14.7-17.9 21.5-22.6 13.6-62.6 25.4-88.1 56.4-22.2 26.4-49.2 40.9-73 42.8s-44.4-8-56.5-32.3l-0.021-0.05-0.029-0.061c-7.52-14.3-4.39-36.8 1.94-60.6 6.33-23.8 15.4-48.2 16.6-68.1v-0.061c1.28-25.4 2.71-47.7 6.98-64.8 4.28-17.2 11-28.8 22.9-35.3 0.56-0.3 1.11-0.59 1.66-0.86 1.35 22 12.3 44.5 31.5 49.4 21.1 5.56 51.5-12.5 64.4-27.3 2.57-0.101 5.07-0.23 7.5-0.29 11.3-0.271 20.7 0.38 30.4 8.82l0.029 0.029 0.03 0.021c7.42 6.29 11 18.2 14 31.5 3.06 13.3 5.5 27.8 14.7 38.1l0.01 0.01 0.01 0.021c17.6 19.6 23.3 32.8 22.8 41.2z"/><path d="m269 789-0.01 0.06v0.07c-2.04 26.7-17.1 41.3-40.3 46.6-23.1 5.29-54.5 0.021-85.9-16.4-0.01 0-0.02-0.01-0.03-0.01-34.7-18.4-75.9-16.5-102-22.1-13.2-2.76-21.9-6.92-25.8-14.6-3.96-7.73-4.05-21.2 4.37-44.2l0.04-0.101 0.03-0.1c4.17-12.8 1.08-26.9-0.94-40.1-2.02-13.2-3.01-25.2 1.5-33.6l0.04-0.08c5.77-11.1 14.2-15.1 24.7-18.9 10.5-3.77 23-6.73 32.8-16.6l0.06-0.05 0.05-0.05c9.09-9.59 15.9-21.6 23.9-30.2 6.74-7.2 13.5-12 23.7-12 0.12 0.011 0.23 0.011 0.35 0 1.78 0.011 3.67 0.16 5.67 0.471 13.5 2.04 25.3 11.5 36.6 26.9l32.7 59.7 0.01 0.03 0.02 0.02c8.71 18.2 27.1 38.2 42.7 58.6 15.6 20.4 27.6 40.9 26.1 56.6z"/><path d="m433 233c-2.63-5.15-8-10-17.1-13.8l-0.02-0.01-0.03-0.01c-19-8.14-27.3-8.72-37.9-15.6-17.3-11.1-31.5-15-43.4-14.9-6.21 0.02-11.8 1.12-16.7 2.84-14.4 4.97-24 15.3-30 21l-0.01 0.01c0 0.01-0.01 0.01-0.01 0.02-1.18 1.12-2.7 2.14-6.38 4.84-3.71 2.71-9.27 6.79-17.3 12.8-7.11 5.33-9.42 12.3-6.96 20.4 2.45 8.13 10.3 17.5 24.6 25.6l0.02 0.02 0.03 0.01c8.9 5.23 15 12.3 22 17.9 3.49 2.8 7.16 5.3 11.6 7.19s9.58 3.17 16 3.55c15.2 0.88 26.3-3.67 36.2-9.31 9.87-5.63 18.2-12.5 27.8-15.6l0.02-0.01 0.021-0.01c19.7-6.14 33.7-18.5 38.1-30.3 2.2-5.88 2.13-11.5-0.49-16.6z"/></g><path d="m383 262c-15.6 8.15-33.9 18-53.4 18-19.4 0-34.8-8.98-45.8-17.7-5.52-4.37-10-8.72-13.4-11.9-5.86-4.63-5.16-11.1-2.75-10.9 4.04 0.504 4.65 5.82 7.19 8.2 3.44 3.22 7.75 7.39 13 11.5 10.4 8.27 24.4 16.3 41.8 16.3 17.4 0 37.7-10.2 50.1-17.2 7.02-3.94 16-11 23.3-16.4 5.58-4.1 5.38-9.03 9.99-8.49 4.61 0.537 1.2 5.46-5.25 11.1-6.45 5.63-16.5 13.1-24.7 17.4z" fill="#202020"/><g fill="#fff"><path d="m622 595c-2.17-0.08-4.31-0.069-6.39-0.02-0.19 0.01-0.38 0.01-0.58 0.01 5.37-17-6.51-29.5-38.2-43.8-32.8-14.4-59-13-63.4 16.3-0.28 1.53-0.51 3.1-0.68 4.68-2.46 0.86-4.92 1.94-7.4 3.29-15.4 8.44-23.8 23.7-28.5 42.5-4.67 18.8-6.02 41.4-7.3 66.9v0.02c-0.79 12.8-6.07 30.2-11.4 48.5-53.8 38.4-128 55-192 11.7-4.29-6.79-9.22-13.5-14.3-20.2-3.24-4.24-6.57-8.45-9.87-12.6 6.5 0.01 12-1.06 16.5-3.08 5.56-2.53 9.46-6.57 11.4-11.8 3.86-10.4-0.02-25-12.4-41.8-12.4-16.7-33.3-35.6-64.1-54.5v-0.01c-22.6-14.1-35.3-31.3-41.2-50-5.93-18.7-5.1-39-0.53-59 8.76-38.4 31.3-75.7 45.6-99.1 3.86-2.84 1.38 5.28-14.5 34.8-14.3 27-40.9 89.4-4.42 138 0.98-34.6 9.25-70 23.1-103 20.2-45.8 62.5-125 65.9-189 1.74 1.26 7.69 5.28 10.3 6.79 0.01 0.01 0.01 0.01 0.02 0.01 7.76 4.57 13.6 11.2 21.1 17.3 7.57 6.08 17 11.3 31.3 12.2 1.37 0.08 2.71 0.12 4.02 0.12 14.7 0 26.2-4.8 35.8-10.3 10.4-5.94 18.7-12.5 26.6-15.1 0.01-0.01 0.02-0.01 0.03-0.01 16.6-5.2 29.8-14.4 37.4-25.1 12.9 50.9 43 124 62.3 160 10.3 19 30.7 59.5 39.5 108 5.59-0.171 11.8 0.64 18.3 2.33 23.1-59.8-19.6-124-39.1-142-7.87-7.64-8.25-11.1-4.34-10.9 21.1 18.7 48.9 56.3 59 98.8 4.61 19.4 5.59 39.7 0.649 59.8 2.41 1 4.87 2.09 7.36 3.27 37 18 50.7 33.7 44.1 55.1z"/><path d="m435 174c0.08 10.1-1.66 18.7-5.49 27.4-2.18 5-4.69 9.2-7.7 12.8-1.02-0.49-2.08-0.96-3.18-1.41-3.81-1.63-7.18-2.97-10.2-4.11-3.02-1.14-5.38-1.92-7.81-2.76 1.76-2.13 5.23-4.64 6.52-7.79 1.96-4.75 2.92-9.39 3.1-14.9 0-0.22 0.07-0.41 0.07-0.67 0.11-5.3-0.59-9.83-2.14-14.5-1.62-4.87-3.68-8.37-6.66-11.3-2.99-2.91-5.97-4.23-9.55-4.35-0.17-0.01-0.33-0.01-0.5-0.01-3.36 0.01-6.28 1.17-9.3 3.69-3.17 2.65-5.52 6.04-7.48 10.8-1.95 4.72-2.91 9.4-3.1 15-0.029 0.22-0.029 0.41-0.029 0.63-0.07 3.06 0.13 5.86 0.6 8.58-6.88-3.43-15.7-5.93-21.8-7.38-0.35-2.63-0.55-5.34-0.61-8.18v-0.77c-0.11-10.1 1.54-18.7 5.41-27.4 3.87-8.77 8.66-15.1 15.4-20.2 6.75-5.12 13.4-7.47 21.2-7.55h0.37c7.68 0 14.2 2.26 21 7.15 6.85 4.98 11.8 11.2 15.8 19.9 3.9 8.48 5.78 16.8 5.97 26.6-1e-3 0.26-1e-3 0.48 0.069 0.74z"/><path d="m318 184c-1.01 0.29-1.99 0.6-2.96 0.93-5.5 1.9-9.87 4-14.1 6.79 0.41-2.92 0.47-5.88 0.15-9.19-0.03-0.18-0.03-0.33-0.03-0.51-0.44-4.39-1.37-8.07-2.92-11.8-1.65-3.87-3.5-6.6-5.93-8.7-2.2-1.9-4.28-2.78-6.58-2.76-0.23 0-0.47 0.01-0.71 0.03-2.58 0.22-4.72 1.48-6.75 3.95-2.02 2.46-3.35 5.52-4.31 9.58-0.96 4.05-1.21 8.03-0.81 12.6 0 0.18 0.04 0.33 0.04 0.51 0.44 4.43 1.33 8.11 2.91 11.8 1.62 3.83 3.5 6.56 5.93 8.66 0.41 0.35 0.81 0.67 1.21 0.95-2.52 1.95-4.21 3.33-6.29 4.85-1.33 0.97-2.91 2.13-4.75 3.49-4.01-3.76-7.14-8.48-9.88-14.7-3.24-7.36-4.97-14.7-5.49-23.4v-0.07c-0.48-8.7 0.37-16.2 2.76-23.9 2.4-7.74 5.6-13.3 10.2-17.9 4.64-4.61 9.32-6.93 15-7.22 0.44-0.02 0.87-0.03 1.3-0.03 5.11 0.01 9.67 1.71 14.4 5.48 5.12 4.09 8.99 9.32 12.2 16.7 3.25 7.37 4.98 14.7 5.46 23.4v0.07c0.23 3.65 0.2 7.09-0.09 10.4z"/></g></g><path d="m344 205c0.647 2.08 3.99 1.73 5.93 2.73 1.7 0.874 3.06 2.79 4.97 2.84 1.82 0.0526 4.65-0.63 4.89-2.44 0.313-2.39-3.17-3.9-5.41-4.78-2.88-1.12-6.58-1.7-9.29-0.191-0.62 0.345-1.3 1.15-1.09 1.83z" fill="#202020"/><path d="m324 205c-0.647 2.08-3.99 1.73-5.93 2.73-1.7 0.874-3.06 2.79-4.97 2.84-1.82 0.0526-4.65-0.63-4.89-2.44-0.313-2.39 3.17-3.9 5.41-4.78 2.88-1.12 6.58-1.7 9.29-0.191 0.62 0.345 1.3 1.15 1.09 1.83z" fill="#202020"/></g></svg>
