<?xml version="1.0" encoding="UTF-8" standalone="no"?>
<!-- Svg Vector Icons : http://www.onlinewebfonts.com/icon -->

<svg
   xmlns:dc="http://purl.org/dc/elements/1.1/"
   xmlns:cc="http://creativecommons.org/ns#"
   xmlns:rdf="http://www.w3.org/1999/02/22-rdf-syntax-ns#"
   xmlns:svg="http://www.w3.org/2000/svg"
   xmlns="http://www.w3.org/2000/svg"
   xmlns:sodipodi="http://sodipodi.sourceforge.net/DTD/sodipodi-0.dtd"
   xmlns:inkscape="http://www.inkscape.org/namespaces/inkscape"
   version="1.1"
   x="0px"
   y="0px"
   viewBox="0 0 32 32"
   enable-background="new 0 0 1000 1000"
   xml:space="preserve"
   id="svg8"
   sodipodi:docname="icon-forum-dark.svg"
   width="32"
   height="32"
   inkscape:version="0.92.4 (unknown)"><defs
   id="defs12" /><sodipodi:namedview
   pagecolor="#ffffff"
   bordercolor="#666666"
   borderopacity="1"
   objecttolerance="10"
   gridtolerance="10"
   guidetolerance="10"
   inkscape:pageopacity="0"
   inkscape:pageshadow="2"
   inkscape:window-width="1366"
   inkscape:window-height="704"
   id="namedview10"
   showgrid="false"
   inkscape:zoom="7.552"
   inkscape:cx="13.491942"
   inkscape:cy="10.368682"
   inkscape:window-x="0"
   inkscape:window-y="27"
   inkscape:window-maximized="1"
   inkscape:current-layer="svg8" />
<metadata
   id="metadata2"> Svg Vector Icons : http://www.onlinewebfonts.com/icon <rdf:RDF><cc:Work
     rdf:about=""><dc:format>image/svg+xml</dc:format><dc:type
       rdf:resource="http://purl.org/dc/dcmitype/StillImage" /><dc:title /></cc:Work></rdf:RDF></metadata>
<path
   style="opacity:1;fill:#404040;fill-opacity:1;stroke:none;stroke-width:0.49687874;stroke-miterlimit:4;stroke-dasharray:0.99375749, 0.99375749000000002;stroke-dashoffset:0;stroke-opacity:1;paint-order:stroke fill markers"
   d="M 16 0 A 16 16 0 0 0 0 16 A 16 16 0 0 0 16 32 A 16 16 0 0 0 32 16 A 16 16 0 0 0 16 0 z M 9.7011719 7.7402344 L 22.298828 7.7402344 C 24.342251 7.7402344 26 9.397981 26 11.441406 L 26 18.544922 C 26 20.590897 24.342251 22.246094 22.298828 22.246094 L 13.378906 22.246094 C 11.210323 24.455544 8.9610325 25.052734 7.6992188 25.052734 C 6.8844043 25.052734 6.4810474 24.806812 6.7773438 24.582031 C 7.9088895 23.728906 8.4927688 22.890535 8.7558594 22.119141 C 7.1696525 21.702797 6 20.261397 6 18.544922 L 6 11.441406 C 6 9.3979811 7.6577499 7.7402344 9.7011719 7.7402344 z M 11.908203 13.972656 C 11.599135 13.972656 11.291935 14.101246 11.072266 14.318359 C 10.852598 14.538027 10.728516 14.843275 10.728516 15.152344 C 10.728516 15.461412 10.855153 15.768612 11.072266 15.988281 C 11.291935 16.207943 11.599135 16.335937 11.908203 16.335938 C 12.217271 16.335938 12.527027 16.207943 12.744141 15.988281 C 12.963809 15.768612 13.087891 15.461412 13.087891 15.152344 C 13.090391 14.843275 12.963809 14.538027 12.744141 14.318359 C 12.524472 14.09869 12.217271 13.972656 11.908203 13.972656 z M 16 13.972656 C 15.690933 13.972656 15.383729 14.101246 15.164062 14.318359 C 14.944394 14.538027 14.816406 14.843275 14.816406 15.152344 C 14.816406 15.461412 14.944394 15.768612 15.164062 15.988281 C 15.383729 16.207943 15.690933 16.335938 16 16.335938 C 16.309067 16.335938 16.618825 16.207943 16.835938 15.988281 C 17.055605 15.768612 17.179687 15.461412 17.179688 15.152344 C 17.182188 14.843275 17.055606 14.538027 16.835938 14.318359 C 16.616271 14.09869 16.309067 13.972656 16 13.972656 z M 20.091797 13.972656 C 19.78273 13.972656 19.472972 14.101246 19.255859 14.318359 C 19.03619 14.538027 18.912109 14.843275 18.912109 15.152344 C 18.912109 15.461412 19.038745 15.768612 19.255859 15.988281 C 19.475527 16.207943 19.78273 16.335937 20.091797 16.335938 C 20.400865 16.335938 20.71062 16.207943 20.927734 15.988281 C 21.147402 15.768612 21.275391 15.461412 21.275391 15.152344 C 21.272891 14.843275 21.147402 14.538027 20.927734 14.318359 C 20.708066 14.09869 20.400865 13.972656 20.091797 13.972656 z "
   id="path823" />
</svg>