<?xml version="1.0" encoding="UTF-8" standalone="no"?>
<!-- Generator: Adobe Illustrator 13.0.0, SVG Export Plug-In . SVG Version: 6.00 Build 14576)  -->

<svg
   xmlns:dc="http://purl.org/dc/elements/1.1/"
   xmlns:cc="http://creativecommons.org/ns#"
   xmlns:rdf="http://www.w3.org/1999/02/22-rdf-syntax-ns#"
   xmlns:svg="http://www.w3.org/2000/svg"
   xmlns="http://www.w3.org/2000/svg"
   xmlns:sodipodi="http://sodipodi.sourceforge.net/DTD/sodipodi-0.dtd"
   xmlns:inkscape="http://www.inkscape.org/namespaces/inkscape"
   version="1.1"
   id="Layer_1"
   x="0px"
   y="0px"
   width="32"
   height="32"
   viewBox="0 0 31.999999 32.000001"
   enable-background="new 0 0 793.322 340.809"
   xml:space="preserve"
   sodipodi:docname="index.svg"
   inkscape:version="0.92.4 (unknown)"><metadata
   id="metadata55"><rdf:RDF><cc:Work
       rdf:about=""><dc:format>image/svg+xml</dc:format><dc:type
         rdf:resource="http://purl.org/dc/dcmitype/StillImage" /><dc:title></dc:title></cc:Work></rdf:RDF></metadata><defs
   id="defs53" /><sodipodi:namedview
   pagecolor="#ffffff"
   bordercolor="#666666"
   borderopacity="1"
   objecttolerance="10"
   gridtolerance="10"
   guidetolerance="10"
   inkscape:pageopacity="0"
   inkscape:pageshadow="2"
   inkscape:window-width="1366"
   inkscape:window-height="704"
   id="namedview51"
   showgrid="false"
   inkscape:zoom="6.6555571"
   inkscape:cx="33.778281"
   inkscape:cy="3.6728635"
   inkscape:window-x="0"
   inkscape:window-y="27"
   inkscape:window-maximized="1"
   inkscape:current-layer="Layer_1" />
<path
   style="opacity:1;fill:#ffffff;fill-opacity:1;stroke:none;stroke-width:14.34642696;stroke-miterlimit:4;stroke-dasharray:28.69285453, 28.69285453000000174;stroke-dashoffset:0;stroke-opacity:1;paint-order:stroke fill markers"
   d="M 16 0 A 16 16 0 0 0 0 16 A 16 16 0 0 0 16 32 A 16 16 0 0 0 32 16 A 16 16 0 0 0 16 0 z M 5.0546875 11.275391 L 5.9433594 11.275391 C 5.9739754 11.275391 5.9980469 11.299458 5.9980469 11.330078 L 5.9980469 11.542969 C 5.9980469 11.573579 5.9739754 11.599609 5.9433594 11.599609 L 5.3574219 11.599609 L 5.3574219 20.400391 L 5.9433594 20.400391 C 5.9739754 20.400391 5.9980469 20.426391 5.9980469 20.457031 L 5.9980469 20.669922 C 5.9980469 20.700532 5.9739754 20.724609 5.9433594 20.724609 L 5.0546875 20.724609 C 5.0240715 20.724609 5 20.700542 5 20.669922 L 5 11.330078 C 5 11.299468 5.0240715 11.275391 5.0546875 11.275391 z M 26.056641 11.275391 L 26.945312 11.275391 C 26.975922 11.275391 27 11.299458 27 11.330078 L 27 20.669922 C 27 20.700532 26.975932 20.724609 26.945312 20.724609 L 26.056641 20.724609 C 26.026001 20.724609 26.001953 20.700542 26.001953 20.669922 L 26.001953 20.457031 C 26.001953 20.426381 26.026021 20.400391 26.056641 20.400391 L 26.642578 20.400391 L 26.642578 11.599609 L 26.056641 11.599609 C 26.026001 11.599609 26.001953 11.573589 26.001953 11.542969 L 26.001953 11.330078 C 26.001953 11.299468 26.026021 11.275391 26.056641 11.275391 z M 20.832031 13.044922 L 21.748047 13.044922 C 21.778657 13.044922 21.802734 13.068989 21.802734 13.099609 L 21.802734 13.853516 C 21.802704 13.884106 21.778667 13.908203 21.748047 13.908203 L 20.832031 13.908203 C 20.801421 13.908203 20.777344 13.884106 20.777344 13.853516 L 20.777344 13.099609 C 20.777344 13.068999 20.801411 13.044922 20.832031 13.044922 z M 16.277344 13.314453 L 17.193359 13.314453 C 17.223969 13.314453 17.248047 13.340474 17.248047 13.371094 L 17.248047 14.314453 L 17.863281 14.314453 C 17.893891 14.314453 17.917969 14.338551 17.917969 14.369141 L 17.917969 14.980469 C 17.917969 15.011079 17.893891 15.037109 17.863281 15.037109 L 17.248047 15.037109 L 17.248047 16.630859 C 17.248047 16.803594 17.280754 16.872601 17.308594 16.900391 C 17.336436 16.928321 17.407255 16.960938 17.580078 16.960938 C 17.6301 16.960938 17.677756 16.959178 17.722656 16.955078 C 17.767136 16.951088 17.810102 16.9458 17.851562 16.9375 C 17.855193 16.936764 17.859681 16.935547 17.863281 16.935547 C 17.875981 16.935547 17.888368 16.941019 17.898438 16.949219 C 17.911238 16.959729 17.917969 16.975548 17.917969 16.992188 L 17.917969 17.699219 C 17.917969 17.726369 17.897854 17.749406 17.871094 17.753906 C 17.792504 17.766996 17.704092 17.77675 17.607422 17.78125 C 17.507229 17.78555 17.416195 17.787109 17.328125 17.787109 C 17.184282 17.787109 17.044967 17.777442 16.916016 17.757812 C 16.782849 17.737511 16.664412 17.697742 16.5625 17.638672 C 16.457425 17.578078 16.37309 17.490775 16.3125 17.378906 C 16.25251 17.268368 16.222656 17.12163 16.222656 16.945312 L 16.222656 15.037109 L 15.722656 15.037109 C 15.692046 15.037109 15.667969 15.011059 15.667969 14.980469 L 15.667969 14.369141 C 15.667969 14.338521 15.692036 14.314453 15.722656 14.314453 L 16.222656 14.314453 L 16.222656 13.371094 C 16.222656 13.340484 16.246724 13.314453 16.277344 13.314453 z M 8.8027344 14.222656 C 9.0203156 14.222656 9.2236263 14.266815 9.4042969 14.351562 C 9.564973 14.427047 9.6937483 14.552953 9.7871094 14.726562 C 9.8827552 14.605598 10.00318 14.495951 10.148438 14.400391 C 10.32653 14.283142 10.539376 14.222656 10.78125 14.222656 C 10.961477 14.222656 11.132257 14.244912 11.287109 14.289062 C 11.444791 14.334209 11.582251 14.408373 11.695312 14.507812 C 11.80868 14.607784 11.897628 14.740491 11.960938 14.900391 C 12.023337 15.058987 12.054688 15.250099 12.054688 15.470703 L 12.054688 17.699219 C 12.054667 17.729829 12.03064 17.755859 12 17.755859 L 11.083984 17.755859 C 11.053374 17.755859 11.029297 17.729839 11.029297 17.699219 L 11.029297 15.8125 C 11.029297 15.702989 11.024025 15.598763 11.015625 15.501953 C 11.007615 15.410939 10.986062 15.331545 10.951172 15.265625 C 10.917783 15.202506 10.868374 15.150911 10.802734 15.113281 C 10.736373 15.075511 10.641768 15.056641 10.523438 15.056641 C 10.405912 15.056641 10.310644 15.077474 10.240234 15.121094 C 10.169102 15.165353 10.112446 15.224012 10.072266 15.294922 C 10.030725 15.368216 10.004183 15.453335 9.9902344 15.546875 C 9.9756444 15.644295 9.9667969 15.743473 9.9667969 15.84375 L 9.9667969 17.699219 C 9.9667969 17.729829 9.9427254 17.755859 9.9121094 17.755859 L 8.9960938 17.755859 C 8.9654777 17.755859 8.9414062 17.729839 8.9414062 17.699219 L 8.9414062 15.832031 C 8.9414062 15.736773 8.9397069 15.638656 8.9355469 15.541016 C 8.9314419 15.450861 8.9145496 15.366366 8.8847656 15.291016 C 8.856535 15.219718 8.8101416 15.164604 8.7441406 15.121094 C 8.6783618 15.078054 8.5774688 15.056641 8.4433594 15.056641 C 8.4053118 15.056641 8.3526664 15.066014 8.2871094 15.083984 C 8.2238816 15.101284 8.1617125 15.133081 8.1015625 15.181641 C 8.0418846 15.229672 7.9888235 15.301661 7.9453125 15.394531 C 7.9018015 15.487597 7.8789062 15.613363 7.8789062 15.767578 L 7.8789062 17.699219 C 7.8789062 17.729829 7.8548618 17.755859 7.8242188 17.755859 L 6.9101562 17.755859 C 6.8795403 17.755859 6.8535156 17.729839 6.8535156 17.699219 L 6.8535156 14.369141 C 6.8535156 14.338521 6.8795402 14.314453 6.9101562 14.314453 L 7.7734375 14.314453 C 7.8040535 14.314453 7.828125 14.338551 7.828125 14.369141 L 7.828125 14.673828 C 7.9344475 14.549064 8.0567818 14.449137 8.1933594 14.373047 C 8.3707299 14.27435 8.5752531 14.222656 8.8027344 14.222656 z M 13.990234 14.222656 C 14.159286 14.222656 14.332232 14.235946 14.505859 14.259766 C 14.682703 14.28417 14.847802 14.331494 14.994141 14.402344 C 15.143226 14.474557 15.266018 14.577775 15.361328 14.707031 C 15.458335 14.83859 15.507812 15.013502 15.507812 15.226562 L 15.507812 16.958984 C 15.507813 17.106155 15.516313 17.250074 15.533203 17.384766 C 15.549173 17.51344 15.576664 17.608302 15.615234 17.669922 C 15.625934 17.687002 15.626988 17.708922 15.617188 17.726562 C 15.607398 17.744173 15.588549 17.755859 15.568359 17.755859 L 14.640625 17.755859 C 14.616745 17.755859 14.595491 17.739457 14.587891 17.716797 C 14.569981 17.66297 14.555902 17.608114 14.544922 17.552734 C 14.541012 17.533434 14.538256 17.514051 14.535156 17.494141 C 14.401351 17.610169 14.24798 17.694374 14.078125 17.746094 C 13.875712 17.807604 13.665282 17.839844 13.455078 17.839844 C 13.291933 17.839844 13.137913 17.819067 12.996094 17.779297 C 12.852112 17.738698 12.723581 17.675724 12.615234 17.589844 C 12.505861 17.503405 12.418822 17.391768 12.357422 17.259766 C 12.296272 17.128513 12.265626 16.970272 12.265625 16.791016 C 12.265625 16.59329 12.302247 16.428612 12.373047 16.298828 C 12.44354 16.169211 12.536542 16.063948 12.648438 15.986328 C 12.758531 15.910014 12.884681 15.852363 13.025391 15.814453 C 13.161303 15.777793 13.302083 15.746519 13.441406 15.724609 C 13.579675 15.703119 13.71636 15.686808 13.849609 15.673828 C 13.979365 15.661288 14.09523 15.642148 14.195312 15.617188 C 14.289933 15.593502 14.366572 15.559495 14.419922 15.515625 C 14.466122 15.477633 14.485822 15.42048 14.482422 15.34375 C 14.482372 15.252542 14.468856 15.184096 14.441406 15.134766 C 14.413729 15.084905 14.377621 15.046931 14.332031 15.019531 C 14.284804 14.991251 14.229436 14.970638 14.166016 14.960938 C 14.097519 14.950648 14.022993 14.947266 13.945312 14.947266 C 13.77798 14.947266 13.645524 14.981121 13.552734 15.050781 C 13.463083 15.118002 13.410031 15.235183 13.394531 15.398438 C 13.391811 15.426887 13.368434 15.449219 13.339844 15.449219 L 12.423828 15.449219 C 12.408518 15.449219 12.395246 15.442731 12.384766 15.431641 C 12.374316 15.420491 12.368254 15.405875 12.369141 15.390625 C 12.382591 15.166749 12.439452 14.977265 12.539062 14.828125 C 12.637453 14.680288 12.765058 14.55885 12.917969 14.46875 C 13.068385 14.380258 13.239715 14.316987 13.427734 14.279297 C 13.613092 14.242277 13.802769 14.222656 13.990234 14.222656 z M 20.246094 14.222656 C 20.311013 14.222656 20.382928 14.234932 20.460938 14.257812 C 20.484557 14.264742 20.501953 14.285917 20.501953 14.310547 L 20.501953 15.162109 C 20.501953 15.178749 20.493309 15.194538 20.480469 15.205078 C 20.470459 15.213248 20.457982 15.216797 20.445312 15.216797 C 20.441623 15.216797 20.439247 15.217518 20.435547 15.216797 C 20.394394 15.208477 20.343196 15.199559 20.285156 15.193359 C 20.226976 15.187159 20.170597 15.185547 20.117188 15.185547 C 19.958951 15.185547 19.824812 15.211732 19.716797 15.263672 C 19.609698 15.315253 19.522171 15.385839 19.457031 15.474609 C 19.390783 15.565097 19.342513 15.672338 19.314453 15.792969 C 19.285523 15.917179 19.271484 16.053962 19.271484 16.199219 L 19.271484 17.699219 C 19.271464 17.729829 19.245464 17.755859 19.214844 17.755859 L 18.300781 17.755859 C 18.270171 17.755859 18.246094 17.729839 18.246094 17.699219 L 18.246094 14.369141 C 18.246094 14.338521 18.270171 14.314453 18.300781 14.314453 L 19.169922 14.314453 C 19.200532 14.314453 19.226562 14.338551 19.226562 14.369141 L 19.226562 14.787109 C 19.253382 14.745071 19.282143 14.704946 19.314453 14.666016 C 19.390826 14.574169 19.479765 14.494578 19.578125 14.429688 C 19.676432 14.365013 19.782774 14.313204 19.894531 14.277344 C 20.00701 14.241354 20.125075 14.222656 20.246094 14.222656 z M 20.832031 14.314453 L 21.748047 14.314453 C 21.778657 14.314453 21.802734 14.338551 21.802734 14.369141 L 21.802734 17.699219 C 21.802704 17.729829 21.778667 17.755859 21.748047 17.755859 L 20.832031 17.755859 C 20.801421 17.755859 20.777344 17.729839 20.777344 17.699219 L 20.777344 14.369141 C 20.777344 14.338521 20.801411 14.314453 20.832031 14.314453 z M 22.224609 14.314453 L 23.267578 14.314453 C 23.286018 14.314453 23.304163 14.322581 23.314453 14.337891 L 23.853516 15.138672 L 24.388672 14.337891 C 24.398982 14.322491 24.415044 14.314453 24.433594 14.314453 L 25.445312 14.314453 C 25.465992 14.314453 25.484541 14.32536 25.494141 14.34375 C 25.503701 14.36205 25.504057 14.383451 25.492188 14.400391 L 24.417969 15.927734 L 25.626953 17.667969 C 25.638653 17.684879 25.640459 17.708313 25.630859 17.726562 C 25.621339 17.744922 25.602691 17.755859 25.582031 17.755859 L 24.537109 17.755859 C 24.518509 17.755859 24.500494 17.746029 24.490234 17.730469 L 23.841797 16.75 L 23.191406 17.730469 C 23.181176 17.746029 23.165114 17.755859 23.146484 17.755859 L 22.121094 17.755859 C 22.100544 17.755859 22.081866 17.744753 22.072266 17.726562 C 22.062746 17.708422 22.064582 17.684939 22.076172 17.667969 L 23.251953 15.947266 L 22.179688 14.400391 C 22.167888 14.383391 22.166181 14.36208 22.175781 14.34375 C 22.185301 14.3255 22.204009 14.314453 22.224609 14.314453 z M 14.482422 16.173828 C 14.459992 16.185168 14.435666 16.194625 14.410156 16.203125 C 14.350229 16.223095 14.285487 16.240566 14.216797 16.253906 C 14.149077 16.267086 14.077836 16.278409 14.003906 16.287109 C 13.930945 16.295729 13.857349 16.305909 13.787109 16.318359 C 13.722522 16.330369 13.656857 16.346197 13.591797 16.367188 C 13.530959 16.386907 13.477544 16.414676 13.433594 16.447266 C 13.391133 16.478549 13.356308 16.517936 13.330078 16.566406 C 13.304648 16.613798 13.291016 16.677676 13.291016 16.753906 C 13.291016 16.825954 13.304568 16.886364 13.330078 16.933594 C 13.35581 16.981348 13.389944 17.017662 13.433594 17.044922 C 13.479185 17.073382 13.53233 17.092066 13.59375 17.103516 C 13.658753 17.115736 13.727605 17.123047 13.796875 17.123047 C 13.966175 17.123047 14.09801 17.095506 14.1875 17.041016 C 14.277461 16.986302 14.344209 16.920933 14.386719 16.845703 C 14.430199 16.768609 14.457097 16.689418 14.466797 16.611328 C 14.477247 16.527606 14.482422 16.460669 14.482422 16.412109 L 14.482422 16.173828 z "
   id="path895" />























</svg>