<?xml version="1.0" encoding="UTF-8" standalone="no"?>
<!-- Created with Inkscape (http://www.inkscape.org/) -->

<svg
   xmlns:dc="http://purl.org/dc/elements/1.1/"
   xmlns:cc="http://creativecommons.org/ns#"
   xmlns:rdf="http://www.w3.org/1999/02/22-rdf-syntax-ns#"
   xmlns:svg="http://www.w3.org/2000/svg"
   xmlns="http://www.w3.org/2000/svg"
   xmlns:sodipodi="http://sodipodi.sourceforge.net/DTD/sodipodi-0.dtd"
   xmlns:inkscape="http://www.inkscape.org/namespaces/inkscape"
   width="64"
   height="64"
   viewBox="0 0 16.933333 16.933334"
   version="1.1"
   id="svg8"
   inkscape:version="0.92.3 (2405546, 2018-03-11)"
   sodipodi:docname="icon_twitter.svg">
  <defs
     id="defs2" />
  <sodipodi:namedview
     id="base"
     pagecolor="#ffffff"
     bordercolor="#666666"
     borderopacity="1.0"
     inkscape:pageopacity="0.0"
     inkscape:pageshadow="2"
     inkscape:zoom="3.959798"
     inkscape:cx="-5.6712389"
     inkscape:cy="25.773913"
     inkscape:document-units="px"
     inkscape:current-layer="layer1"
     showgrid="false"
     units="px"
     width="32px"
     inkscape:window-width="1366"
     inkscape:window-height="705"
     inkscape:window-x="-8"
     inkscape:window-y="-8"
     inkscape:window-maximized="1" />
  <metadata
     id="metadata5">
    <rdf:RDF>
      <cc:Work
         rdf:about="">
        <dc:format>image/svg+xml</dc:format>
        <dc:type
           rdf:resource="http://purl.org/dc/dcmitype/StillImage" />
        <dc:title />
      </cc:Work>
    </rdf:RDF>
  </metadata>
  <g
     inkscape:label="Layer 1"
     inkscape:groupmode="layer"
     id="layer1"
     transform="translate(0,-280.06665)">
    <g
       style="fill:#ffffff;fill-opacity:1;stroke-width:0.625"
       id="g2245"
       transform="matrix(2.1709402,0,0,2.1709402,-230.85778,76.046032)">
      <path
         id="path2243"
         d="m 110.24,93.978 a 3.9002,3.9002 0 0 0 -3.9,3.9 3.9002,3.9002 0 0 0 3.9,3.9 3.9002,3.9002 0 0 0 3.9,-3.9 3.9002,3.9002 0 0 0 -3.9,-3.9 z m 1.0907,1.867 c -0.0196,0.08023 -0.0754,0.14417 -0.18525,0.18525 0.11081,-0.04252 0.22287,-0.07837 0.33923,-0.09948 0.10786,-0.01955 0.10678,0.06596 0.0458,0.1091 -0.12385,0.08737 -0.25574,0.09746 -0.38494,0.13952 0.39614,0.0093 0.71975,0.19801 0.97279,0.60709 0.0841,0.13595 0.1406,0.27194 0.15395,0.42104 0.16897,0.04749 0.337,0.05727 0.50684,0.02731 0.0465,-0.0078 0.0902,-0.01769 0.13144,-0.03693 -0.066,0.09901 -0.14184,0.1805 -0.24861,0.21734 -0.10196,0.03523 -0.20406,0.06999 -0.31678,0.07294 0.18342,0.06937 0.38528,0.07294 0.59266,0.05851 -0.25372,0.24419 -0.44751,0.23867 -0.64238,0.23578 -0.0855,0.36082 -0.26055,0.72031 -0.62955,1.0498 -0.48408,0.43224 -1.0054,0.63813 -1.5438,0.68328 -0.50476,0.04221 -0.99265,0.03678 -1.5254,-0.21252 -0.39494,-0.1848 -0.72614,-0.43938 -0.9824,-0.79235 0.34643,0.32039 1.2361,0.62376 1.96,-0.08582 -0.13021,0.02033 -0.23828,-0.0047 -0.3208,-0.08582 -0.0784,-0.0776 -0.0827,-0.15794 -0.041,-0.23097 0.0341,-0.05944 0.10584,-0.10165 0.17644,-0.1451 -0.12803,0.0239 -0.23762,0.01086 -0.33523,-0.03849 -0.13098,-0.06704 -0.25861,-0.13688 -0.29432,-0.28229 0.0802,-0.08427 0.16962,-0.15992 0.36249,-0.13145 -0.18143,-0.06052 -0.34418,-0.13983 -0.46194,-0.25824 -0.11468,-0.11531 -0.12601,-0.19026 -0.14433,-0.28068 0.1001,-0.03709 0.20461,-0.05587 0.3168,-0.04485 -0.2537,-0.12974 -0.36145,-0.30848 -0.42105,-0.50284 -0.018,-0.05882 -0.0213,-0.11438 -0.014,-0.17163 1.0275,0.38786 1.5083,0.66646 1.774,0.92788 0.1195,-0.31803 0.39819,-1.0383 0.8148,-1.2856 0.002,0.03926 -0.014,0.08132 -0.0448,0.12664 0.12338,-0.06875 0.21927,-0.17861 0.38896,-0.17644 z"
         inkscape:connector-curvature="0"
         style="fill:#ffffff;fill-opacity:1;stroke-width:0.2216" />
    </g>
  </g>
</svg>
