<svg width="64" height="64" version="1.1" viewBox="0 0 16.933 16.933" xmlns="http://www.w3.org/2000/svg"><path d="m15.3 13.2c-0.256 0.592-0.559 1.14-0.91 1.64-0.479 0.683-0.871 1.16-1.17 1.42-0.468 0.431-0.97 0.651-1.51 0.664-0.386 0-0.851-0.11-1.39-0.332-0.543-0.222-1.04-0.331-1.5-0.331-0.479 0-0.992 0.11-1.54 0.331-0.55 0.223-0.993 0.339-1.33 0.35-0.515 0.0219-1.03-0.205-1.54-0.681-0.327-0.285-0.736-0.774-1.23-1.47-0.526-0.74-0.958-1.6-1.3-2.58-0.363-1.06-0.545-2.08-0.545-3.07 0-1.13 0.245-2.11 0.736-2.93 0.386-0.659 0.9-1.18 1.54-1.56 0.643-0.381 1.34-0.576 2.08-0.588 0.409 0 0.946 0.127 1.61 0.375 0.665 0.25 1.09 0.376 1.28 0.376 0.14 0 0.614-0.148 1.42-0.443 0.76-0.274 1.4-0.387 1.93-0.342 1.42 0.115 2.5 0.677 3.21 1.69-1.27 0.772-1.9 1.85-1.89 3.24 0.0115 1.08 0.403 1.98 1.17 2.69 0.349 0.331 0.739 0.587 1.17 0.769-0.0941 0.273-0.193 0.534-0.299 0.785zm-3.27-12.9c0 0.847-0.309 1.64-0.926 2.37-0.744 0.87-1.64 1.37-2.62 1.29-0.0124-0.102-0.0196-0.209-0.0196-0.321 0-0.813 0.354-1.68 0.982-2.39 0.314-0.36 0.713-0.66 1.2-0.899 0.483-0.235 0.94-0.365 1.37-0.388 0.0125 0.113 0.0178 0.226 0.0178 0.339z" fill="#1f2932" stroke-width=".423"/></svg>
