<svg width="140" height="40" version="1.1" viewBox="0 0 37.042069 10.583" xmlns="http://www.w3.org/2000/svg"><defs><linearGradient id="b" x1="-147" x2="-157" y1="58.3" y2="26.5" gradientTransform="matrix(.0817 0 0 .0817 20.9 2.5)" gradientUnits="userSpaceOnUse"><stop stop-color="#204a87" offset="0"/><stop stop-color="#729fcf" offset="1"/></linearGradient><linearGradient id="a" x1="-207" x2="-211" y1="68.8" y2="7.71" gradientTransform="matrix(.0809 0 0 .0809 22.6 2.19)" gradientUnits="userSpaceOnUse"><stop stop-color="#a40000" offset="0"/><stop stop-color="#ef2929" offset="1"/></linearGradient></defs><path d="m5.29-3.28e-4c-2.93 0-5.29 2.36-5.29 5.29 0 2.93 2.36 5.29 5.29 5.29h26.5c2.93 0 5.29-2.36 5.29-5.29 0-2.93-2.36-5.29-5.29-5.29zm18.9 3.68c0.479 0 1 0.224 1.33 0.573l-0.6 0.712c-0.188-0.255-0.47-0.421-0.712-0.421-0.376 0-0.649 0.3-0.649 0.717 0 0.421 0.273 0.725 0.649 0.725 0.224 0 0.506-0.139 0.712-0.358l0.6 0.64c-0.349 0.381-0.882 0.627-1.37 0.627-0.963 0-1.66-0.685-1.66-1.62 0-0.922 0.716-1.59 1.7-1.59zm-11.9 0.0314h2.53v0.788h-1.49v0.542h1.39v0.788h-1.39v1.02h-1.04zm14.5 0h1.07l1.28 3.14h-1.11l-0.157-0.443h-1.18l-0.162 0.443h-1.07zm2.52 0h1.4c1.03 0 1.71 0.613 1.71 1.57 0 0.954-0.685 1.57-1.75 1.57h-1.36zm-12.4 0.645v0.909c-0.452-0.0671-0.748 0.0939-0.748 0.416v1.17h-1.01v-2.45h1.01v0.358c0.17-0.255 0.43-0.403 0.748-0.403zm1.42 0.00899c0.855 0 1.36 0.582 1.3 1.49h-1.59c0.0672 0.193 0.21 0.291 0.407 0.291 0.17 0 0.345-0.0761 0.497-0.219l0.524 0.515c-0.26 0.287-0.636 0.448-1.11 0.448-0.837 0-1.33-0.493-1.33-1.25 0-0.775 0.519-1.27 1.31-1.27zm2.75 0c0.855 0 1.36 0.582 1.3 1.49h-1.59c0.0672 0.193 0.21 0.291 0.407 0.291 0.17 0 0.345-0.0761 0.497-0.219l0.524 0.515c-0.26 0.287-0.636 0.448-1.11 0.448-0.837 0-1.33-0.493-1.33-1.25 0-0.775 0.519-1.27 1.31-1.27zm9.24 0.152v1.53h0.39c0.376 0 0.618-0.296 0.618-0.757 0-0.466-0.264-0.77-0.667-0.77zm-3.06 0.228-0.331 0.918h0.654zm-8.92 0.291c-0.175 0-0.282 0.144-0.322 0.349h0.609c0.0135-0.201-0.112-0.349-0.287-0.349zm2.75 0c-0.175 0-0.282 0.144-0.322 0.349h0.609c0.0134-0.201-0.112-0.349-0.287-0.349z" fill="#fff" stroke-width=".891" style="paint-order:normal"/><g stroke-linecap="round" stroke-linejoin="round" stroke-width=".19"><path d="m9.71 4.44-0.588 0.337-0.26-0.0901-0.248-0.633-0.39 0.0205-0.178 0.655-0.249 0.119-0.62-0.271-0.262 0.291 0.337 0.588-0.0922 0.259-0.633 0.248 0.0227 0.39 0.655 0.178 0.119 0.249-0.273 0.62 0.291 0.262 0.588-0.337 0.261 0.093 0.246 0.632 0.393-0.0219 0.176-0.655 0.249-0.119 0.622 0.274 0.262-0.291-0.337-0.588 0.0909-0.262 0.632-0.246-0.0198-0.392-0.655-0.176-0.119-0.249 0.272-0.623zm-0.881 0.964 0.121 0.07 0.105 0.0948 0.0837 0.113 0.0602 0.126 0.0356 0.136 0.00578 0.139-0.0201 0.139-0.0458 0.132-0.0729 0.122-0.092 0.103-0.113 0.0837-0.126 0.0602l-0.136 0.0356-0.14 0.0079-0.139-0.0201-0.132-0.0458-0.122-0.0729-0.102-0.094-0.0845-0.111-0.0602-0.126-0.0345-0.138-0.0079-0.14 0.0201-0.139 0.0458-0.132 0.0721-0.12 0.0927-0.105 0.113-0.0837 0.126-0.0602 0.138-0.0345 0.139-0.00578 0.139 0.0201 0.132 0.0458z" fill="url(#b)" fill-rule="evenodd" stroke="#000137"/><path d="m9.69 4.67-0.549 0.314-0.414-0.149-0.241-0.583-0.116 0.00608-0.168 0.614-0.404 0.184-0.572-0.249-0.0766 0.0877 0.316 0.555-0.158 0.405-0.577 0.23 0.00679 0.124 0.609 0.167 0.189 0.404-0.252 0.571 0.0846 0.0735 0.543-0.31 0.436 0.153 0.215 0.58h0.117l0.17-0.61 0.396-0.198 0.598 0.256 0.072-0.0769-0.316-0.541 0.136-0.425 0.594-0.236-0.00395-0.122-0.602-0.154-0.2-0.409 0.252-0.585z" fill="none" stroke="#729fcf"/><circle cx="8.53" cy="6.05" r=".913" fill="none" stroke="#729fcf" stroke-dashoffset="6"/></g><path d="m5.01 2.53v5.52h1.14v-2.28h1.14v-1.14h-1.14v-0.951h1.9v-1.14z" fill="url(#a)" fill-rule="evenodd" stroke="#280000" stroke-width=".19"/><path d="m5.2 2.72v5.14h0.761v-2.28h1.14v-0.761h-1.14v-1.33h1.9v-0.761z" fill="none" stroke="#ef2929" stroke-width=".19"/></svg>
