<?xml version="1.0" encoding="UTF-8" standalone="no"?>
<!-- Creator: CorelDRAW 2017 -->

<svg
   xmlns:dc="http://purl.org/dc/elements/1.1/"
   xmlns:cc="http://creativecommons.org/ns#"
   xmlns:rdf="http://www.w3.org/1999/02/22-rdf-syntax-ns#"
   xmlns:svg="http://www.w3.org/2000/svg"
   xmlns="http://www.w3.org/2000/svg"
   xmlns:sodipodi="http://sodipodi.sourceforge.net/DTD/sodipodi-0.dtd"
   xmlns:inkscape="http://www.inkscape.org/namespaces/inkscape"
   xml:space="preserve"
   width="146"
   height="40"
   version="1.1"
   viewBox="0 0 164.69838 45.113559"
   id="svg20"
   sodipodi:docname="Ol-at-FC_FreeCAD_logo-wordmark_color_hor.svg"
   inkscape:version="0.92.3 (2405546, 2018-03-11)"
   style="clip-rule:evenodd;fill-rule:evenodd;image-rendering:optimizeQuality;shape-rendering:geometricPrecision;text-rendering:geometricPrecision"><metadata
   id="metadata26"><rdf:RDF><cc:Work
       rdf:about=""><dc:format>image/svg+xml</dc:format><dc:type
         rdf:resource="http://purl.org/dc/dcmitype/StillImage" /><dc:title></dc:title></cc:Work></rdf:RDF></metadata><defs
   id="defs24">
  
  
  
  
  
  
  
  
 </defs><sodipodi:namedview
   pagecolor="#ffffff"
   bordercolor="#666666"
   borderopacity="1"
   objecttolerance="10"
   gridtolerance="10"
   guidetolerance="10"
   inkscape:pageopacity="0"
   inkscape:pageshadow="2"
   inkscape:window-width="1366"
   inkscape:window-height="704"
   id="namedview22"
   showgrid="false"
   inkscape:zoom="4.2591234"
   inkscape:cx="87.000658"
   inkscape:cy="26.946334"
   inkscape:window-x="0"
   inkscape:window-y="27"
   inkscape:window-maximized="1"
   inkscape:current-layer="svg20" />
 <g
   id="g849"
   transform="matrix(0.08476343,0,0,0.08476343,-0.00197154,-0.11229342)"><path
     d="M 648.34,316.74 V 195.99 c 0,-7.35 6.02,-13.38 13.37,-13.38 h 100.63 c 17.64,0 17.58,26.75 0,26.75 h -87.25 v 33.63 h 70.7 c 17.65,0 17.59,26.75 0,26.75 h -70.7 v 47 c 0,17.64 -26.75,17.59 -26.75,0 z m 186.16,0 V 195.99 c 0,-7.35 6.02,-13.38 13.37,-13.38 h 60.78 c 24.83,0 48.2,19.7 48.2,45.21 0,25.51 -11.7,36.78 -32.81,45.63 l 33.49,33.46 c 12.95,12.95 -5.89,31.83 -18.86,18.86 l -50.89,-51 h -26.53 v 41.97 c 0,17.64 -26.75,17.59 -26.75,0 z m 73.75,-107.38 h -47 v 38.66 h 47.15 c 14.81,0 21.89,-8.75 21.4,-20.75 -0.5,-12 -11.16,-17.91 -21.55,-17.91 z m 116.44,107.38 V 195.99 c 0,-7.35 6.02,-13.38 13.37,-13.38 h 100.63 c 17.64,0 17.59,26.75 0,26.75 h -87.25 v 33.63 h 70.71 c 17.64,0 17.58,26.75 0,26.75 h -70.71 v 33.63 h 87.25 c 17.64,0 17.58,26.75 0,26.75 h -100.63 c -7.37,0 -13.37,-6.01 -13.37,-13.38 z m 190.19,0 V 195.99 c 0,-7.35 6.02,-13.38 13.37,-13.38 h 100.63 c 17.64,0 17.59,26.75 0,26.75 h -87.25 v 33.63 h 70.7 c 17.65,0 17.59,26.75 0,26.75 h -70.7 v 33.63 h 87.25 c 17.64,0 17.58,26.75 0,26.75 h -100.63 c -7.37,0 -13.37,-6.01 -13.37,-13.38 z m 221.5,-128.69 c 27.58,-11.42 58.66,-4.85 79.93,15.75 13.52,12.23 -6.23,31.99 -18.74,19.13 -8.91,-9.16 -28.32,-19.3 -50.88,-10.2 -17.69,7.31 -28.96,24.64 -28.96,43.64 0,19 11.27,36.32 28.96,43.63 16.79,6.93 38.15,3.19 50.89,-9.98 11.51,-11.9 31.76,3.67 19.25,18.64 -20.97,20.96 -52.96,27.34 -80.45,16.05 -27.64,-11.35 -45.4,-38.39 -45.4,-68.34 0,-29.88 17.67,-56.84 45.4,-68.32 z m 277.76,134.48 -11.94,-20.65 h -91.54 l -11.95,20.65 c -10.55,17.64 -32.37,1.12 -23.02,-12.95 l 69.35,-120.44 c 4.99,-8.69 18.12,-8.52 22.98,-0.07 l 69.42,120.64 c 9.26,14.3 -12.84,30.25 -23.3,12.82 z m -88.05,-47.4 h 60.73 l -30.3,-52.64 z m 172.23,41.61 V 195.99 c 0,-7.35 6.03,-13.38 13.38,-13.38 h 50.31 c 40.86,0 73.76,32.9 73.76,73.76 0,41.07 -32.68,73.75 -73.76,73.75 h -50.31 c -7.38,0 -13.38,-6 -13.38,-13.38 z m 63.69,-107.38 h -36.94 v 94.01 h 37.34 c 26.13,0 46.6,-20.98 46.6,-47 0,-26.23 -20.77,-47.01 -47,-47.01 z"
     id="path3"
     inkscape:connector-curvature="0"
     style="fill:#ffffff;fill-rule:nonzero" /><path
     d="m 488.12,359.13 c -0.8,6.82 -4.12,13.36 -9.81,18.03 L 302.53,522.22 c -8.5,8.02 -23.59,11.35 -34.78,9.71 -10.66,-1.56 -21.88,-6.6 -30.41,-13.23 l -47.7,-37.12 c -13.48,-10.49 -23.61,-30.72 -24.76,-47.79 l -1.51,-22.26 -26.98,13.23 c -10.17,4.97 -21.89,2.93 -29.83,-4.23 L 54,377.17 c -5.68,-4.68 -9,-11.21 -9.81,-18.04 L 0.32,74.76 C -1.94,59.98 7.93,46.13 22.42,43.58 L 261.49,0.41 c 3.41,-0.6 6.79,-0.53 9.99,0.12 l 238.43,42.96 c 14.78,2.61 24.66,16.85 22.08,31.81 z"
     id="path5"
     inkscape:connector-curvature="0"
     style="fill:#000000;fill-rule:nonzero" /><path
     d="m 281.15,151.51 -6.85,120.39 -8.14,25.68 -158.92,-88.19 c -1.84,-1.17 -4.13,0.11 -5.42,2.42 -1.3,2.31 0.1,5.61 2.43,6.9 l 66.04,36.65 4.39,11.56 -1.2,30.5 0.15,7.27 0.29,4.21 2.87,42.24 -57.84,-40.75 c -1.92,-1.35 -4.52,-0.28 -5.83,1.84 -1.32,2.11 -0.21,5.65 1.97,7.18 l 3.98,5.29 5.53,75.34 L 71.1,355.89 27.08,70.57 Z"
     id="path7"
     inkscape:connector-curvature="0"
     style="fill:#c20202" /><path
     d="m 461.22,355.89 11.73,-76.06 -44.85,31.72 -15.12,16.32 -2.81,8.57 5.23,13.3 -7.51,14.25 -11.85,-0.81 -5.26,6.69 -6.09,23.79 -9.83,7.75 -2.29,-17.75 -5.07,1.13 -15.62,22.42 -7.04,-3.94 10.3,-26.53 -1.82,-5.73 -17.35,6.54 0.86,-15.2 18.46,-18.74 2.96,-9.52 -7.8,-15.92 9.03,-16.72 14.76,2.96 5.89,-7.03 6.66,-27.73 10.68,-6.53 1.87,21.94 4.91,-0.17 15.07,-21.21 5.53,6.43 -10.06,25.8 1.18,6.07 14.67,-3.98 44.35,-31.37 12.59,-81.59 -218.03,121.65 c -18.18,10.15 -18.22,20.19 -16.84,37.95 l 11.47,146.85 c 0.99,10.92 10.1,15.18 19.83,10.63 z m -73.83,-38.32 c 6.87,-4.66 11.34,-0.26 10.35,9.26 -1,9.51 -6.95,20.8 -13.65,25.7 -6.7,4.9 -11.73,1.37 -10.91,-8.39 0.82,-9.76 7.35,-21.91 14.21,-26.57 z"
     id="path9"
     inkscape:connector-curvature="0"
     style="fill:#4c7ac9" /><g
     id="g13">
   <path
   d="m 183.68,310.14 c -1.04,-15.44 1.38,-31.35 12.27,-40.54 L 255,302.38 c 7.25,4.02 12.3,5.71 23.67,-0.68 l 21.9,-12.31 c -19.05,10.58 -34.41,32.93 -34.41,56.96 V 483.1 c 0,16.11 7.77,23.35 18,18.89 -4.45,2.52 -8.18,3.4 -12.58,2.75 -5.97,-0.87 -12.47,-3.7 -17.68,-7.75 l -47.7,-37.12 c -8.99,-6.99 -13.79,-21.19 -14.25,-27.9 z m 100.48,191.85 z"
   id="path11"
   inkscape:connector-curvature="0"
   style="fill:#6d97d6" />
  </g><path
     d="M 505.24,70.57 489.44,173 266.16,297.58 V 161.74 l 0.1,-19.91 194.88,-62.79 z M 173.92,308.9 c -1.18,-17.36 2.86,-36.82 13.08,-44.37 l -16.71,-9.17 z m -49.32,91.14 53.72,-26.33 -0.7,-10.24 -62.53,-44.06 z"
     id="path15"
     inkscape:connector-curvature="0"
     style="fill:#8c0000" /><polygon
     points="505.24,70.57 266.16,161.74 27.08,70.57 266.16,27.5 "
     id="polygon17"
     style="fill:#ed0000" /></g>
</svg>