<?xml version="1.0" encoding="UTF-8" standalone="no"?>
<!-- Created with Inkscape (http://www.inkscape.org/) -->

<svg
   xmlns:dc="http://purl.org/dc/elements/1.1/"
   xmlns:cc="http://creativecommons.org/ns#"
   xmlns:rdf="http://www.w3.org/1999/02/22-rdf-syntax-ns#"
   xmlns:svg="http://www.w3.org/2000/svg"
   xmlns="http://www.w3.org/2000/svg"
   xmlns:sodipodi="http://sodipodi.sourceforge.net/DTD/sodipodi-0.dtd"
   xmlns:inkscape="http://www.inkscape.org/namespaces/inkscape"
   width="140"
   height="40"
   version="1.1"
   viewBox="0 0 37.042069 10.583"
   id="svg36"
   sodipodi:docname="logo-freecad-new.svg"
   inkscape:version="0.92.3 (2405546, 2018-03-11)">
  <sodipodi:namedview
     pagecolor="#ffffff"
     bordercolor="#666666"
     borderopacity="1"
     objecttolerance="10"
     gridtolerance="10"
     guidetolerance="10"
     inkscape:pageopacity="0"
     inkscape:pageshadow="2"
     inkscape:window-width="1366"
     inkscape:window-height="704"
     id="namedview38"
     showgrid="false"
     inkscape:zoom="3.2627927"
     inkscape:cx="89.095218"
     inkscape:cy="49.552932"
     inkscape:window-x="0"
     inkscape:window-y="27"
     inkscape:window-maximized="1"
     inkscape:current-layer="svg36" />
  <defs
     id="defs12">
    <linearGradient
       id="linearGradient954"
       x1="-146.74"
       x2="-157.32"
       y1="58.262"
       y2="26.521"
       gradientTransform="matrix(6.9077,0,0,6.9077,-4100,1055.2)"
       gradientUnits="userSpaceOnUse">
      <stop
         stop-color="#204a87"
         offset="0"
         id="stop2" />
      <stop
         stop-color="#729fcf"
         offset="1"
         id="stop4" />
    </linearGradient>
    <linearGradient
       id="linearGradient956"
       x1="-206.7"
       x2="-211.4"
       y1="68.842"
       y2="7.7114"
       gradientTransform="matrix(6.843,0,0,6.843,-3961.1,1029.7)"
       gradientUnits="userSpaceOnUse">
      <stop
         stop-color="#a40000"
         offset="0"
         id="stop7" />
      <stop
         stop-color="#ef2929"
         offset="1"
         id="stop9" />
    </linearGradient>
  </defs>
  <metadata
     id="metadata14">
    <rdf:RDF>
      <cc:Work
         rdf:about="">
        <dc:format>image/svg+xml</dc:format>
        <dc:type
           rdf:resource="http://purl.org/dc/dcmitype/StillImage" />
        <dc:title />
      </cc:Work>
    </rdf:RDF>
  </metadata>
  <path
     d="m 5.2933567,-3.27724e-4 c -2.9316432,0 -5.29169686,2.360116024 -5.29169686,5.291696824 0,2.9315809 2.36011606,5.2916969 5.29169686,5.2916969 H 31.751841 c 2.931643,0 5.291697,-2.360116 5.291697,-5.2916969 0,-2.9316432 -2.360116,-5.291696824 -5.291697,-5.291696824 z M 24.178279,3.6841165 c 0.47903,0 1.003152,0.2238934 1.325389,0.573081 L 24.903835,4.9690637 C 24.71581,4.7138639 24.433747,4.5480593 24.191969,4.5480593 c -0.376057,0 -0.649341,0.3002218 -0.649341,0.7165462 0,0.4208422 0.273309,0.72522 0.649341,0.72522 0.22385,0 0.505919,-0.1387166 0.711866,-0.358086 l 0.599833,0.6399183 c -0.349188,0.3805627 -0.882033,0.626939 -1.365513,0.626939 -0.96253,0 -1.661104,-0.6849715 -1.661104,-1.6206063 0,-0.9222187 0.716296,-1.5938989 1.701228,-1.5938989 z m -11.906038,0.03145 h 2.525104 v 0.787683 h -1.486633 v 0.5420304 h 1.392657 v 0.787683 h -1.392657 v 1.0208116 h -1.038471 z m 14.452607,0 h 1.065615 l 1.275905,3.1383141 H 27.960692 L 27.803848,6.4104867 h -1.17725 l -0.161555,0.4433938 h -1.065241 z m 2.519986,0 h 1.401331 c 1.034165,0 1.705533,0.6131734 1.705533,1.5668171 0,0.9536061 -0.684971,1.571497 -1.745969,1.571497 H 29.244896 Z M 16.873912,4.3602272 V 5.2690297 C 16.421745,5.2018804 16.12629,5.3629489 16.12629,5.6853042 V 6.8539429 H 15.118895 V 4.4050932 h 1.007395 v 0.3580797 c 0.170123,-0.2551873 0.429754,-0.4029083 0.747622,-0.4029083 z m 1.419365,0.00899 c 0.855075,0 1.356339,0.5818607 1.302675,1.4862578 h -1.593525 c 0.06715,0.1925059 0.210241,0.2908805 0.407221,0.2908805 0.170122,0 0.344632,-0.076085 0.496846,-0.2193569 l 0.523965,0.5149361 c -0.259661,0.2865311 -0.635862,0.4477057 -1.110419,0.4477057 -0.837229,0 -1.334062,-0.4925718 -1.334062,-1.2491355 0,-0.7745164 0.519416,-1.2711629 1.307355,-1.2711629 z m 2.745627,0 c 0.855138,0 1.356339,0.5818607 1.302675,1.4862578 h -1.593525 c 0.06716,0.1925059 0.210247,0.2908805 0.407227,0.2908805 0.170129,0 0.344626,-0.076085 0.496852,-0.2193569 l 0.523959,0.5149361 c -0.259661,0.2865311 -0.635862,0.4477057 -1.110419,0.4477057 -0.837229,0 -1.334125,-0.4925718 -1.334125,-1.2491355 0,-0.7745164 0.519411,-1.2711629 1.307356,-1.2711629 z m 9.244651,0.1521202 v 1.5266934 h 0.389529 c 0.376064,0 0.617922,-0.2955418 0.617922,-0.7566698 0,-0.4656022 -0.264135,-0.7700236 -0.667062,-0.7700236 z m -3.056944,0.228357 -0.331366,0.9178506 h 0.653709 z m -8.923912,0.2908804 c -0.174603,0 -0.282026,0.1435027 -0.322318,0.3494497 h 0.608862 C 18.602721,5.1885579 18.47729,5.0405748 18.302699,5.0405748 Z m 2.745627,0 c -0.174597,0 -0.282038,0.1435027 -0.322318,0.3494497 H 21.33487 C 21.348286,5.1885579 21.222917,5.0405748 21.048326,5.0405748 Z"
     style="fill:#ffffff;stroke-width:0.89101833;paint-order:normal"
     id="path16"
     inkscape:connector-curvature="0" />
  <g
     id="g867"
     transform="matrix(0.30897294,0,0,0.30897294,-5.4696878,-1.6115666)">
    <path
       id="path2"
       d="m 49.050801,25.564746 c -0.02916,0.236673 -0.144062,0.463056 -0.341289,0.625983 l -6.093466,5.028438 c -0.294983,0.277833 -0.818065,0.392739 -1.205659,0.336144 -0.370444,-0.05317 -0.759754,-0.228098 -1.054737,-0.45791 L 38.70237,29.80942 c -0.4682,-0.363584 -0.819779,-1.065026 -0.859224,-1.656709 l -0.05145,-0.771759 -0.936401,0.459626 c -0.351579,0.171501 -0.758039,0.101185 -1.034157,-0.147492 L 33.999787,26.190729 C 33.80256,26.027802 33.687653,25.801419 33.658498,25.564746 L 32.13899,15.705097 c -0.07889,-0.511076 0.262398,-0.991282 0.764899,-1.080463 l 8.288692,-1.497212 c 0.118336,-0.02058 0.234957,-0.01715 0.346433,0.0051 l 8.266396,1.488637 c 0.512791,0.0909 0.855795,0.584822 0.766615,1.102758 z"
       style="fill-rule:nonzero;stroke-width:0.17150199"
       inkscape:connector-curvature="0" />
    <path
       sodipodi:nodetypes="ccccccccccccscccc"
       style="fill:#c20202;stroke-width:0.17150246"
       inkscape:connector-curvature="0"
       id="path4"
       d="m 33.065097,15.561058 1.526331,9.890703 1.855695,1.531454 -0.331039,-2.795412 c -0.07375,-0.05317 -0.113138,-0.174955 -0.06683,-0.248701 0.04459,-0.07374 0.13545,-0.111495 0.202335,-0.06347 l 2.00489,1.411471 -0.09945,-1.462858 -0.01031,-0.145813 -1.62e-4,-0.0073 -0.116482,-1.704309 -2.289555,-1.270841 c -0.0806,-0.04459 -0.128609,-0.157783 -0.08402,-0.238388 0.04459,-0.0806 0.125207,-0.12518 0.188663,-0.08402 l 5.510267,3.057862 v -4.709337 z" />
    <path
       sodipodi:nodetypes="cccccccccccccccc"
       style="fill:#8c0000;stroke-width:0.17150246"
       inkscape:connector-curvature="0"
       id="path6"
       d="m 49.644061,15.561058 -8.288857,3.160754 v 4.709338 l 7.739786,-4.320217 z m -11.614176,6.405434 0.126947,1.857376 c -0.04116,-0.601983 0.09942,-1.277723 0.45271,-1.538415 l -0.579653,-0.318969 z m -1.913965,2.220959 0.331038,2.795412 1.8625,-0.912381 -0.02398,-0.355022 -2.169573,-1.528012 z" />
    <polygon
       id="polygon8"
       points="53.81,32.7 5.47,14.27 53.81,5.56 102.14,14.27 "
       style="fill:#ed0000"
       transform="matrix(0.171502,0,0,0.171502,32.126984,13.113701)" />
    <path
       id="path10"
       d="m 49.032027,19.529619 -6.501639,3.626995 c -0.652237,0.370866 -1.174675,1.139518 -1.174675,1.965705 l -0.0018,4.740232 c 0,0.399602 0.138949,0.641443 0.34647,0.691189 0.09047,0.02048 0.194501,0.0035 0.278337,-0.0372 0.0046,-0.003 0.0095,-0.0059 0.01321,-0.0091 l 6.126206,-5.05583 0.406445,-2.636009 -1.555504,1.099354 -0.523065,0.565926 -0.09777,0.296744 0.181788,0.461275 -0.260691,0.493968 -0.411608,-0.02742 -0.181787,0.231513 -0.210892,0.824936 -0.341351,0.269248 -0.07882,-0.61571 -0.176673,0.03949 -0.540232,0.776873 -0.245263,-0.137182 0.356778,-0.919263 -0.06347,-0.198976 -0.600302,0.226398 0.02918,-0.526505 0.639683,-0.650008 0.102888,-0.329282 -0.269248,-0.552238 0.312173,-0.579653 0.511058,0.102888 0.204095,-0.243508 0.231512,-0.962125 0.370455,-0.226397 0.06515,0.761464 0.169798,-0.0069 0.523064,-0.735692 0.190344,0.22296 -0.348151,0.895212 0.04117,0.210966 0.509376,-0.138937 1.536656,-1.087309 0.437301,-2.828027 z m -6.549741,3.653823 -0.791538,0.441564 c 0.03157,-0.0153 0.06406,-0.0319 0.09884,-0.0514 l 0.692713,-0.390161 z m 3.236623,0.87648 c -0.04746,0.0032 -0.101797,0.02393 -0.161397,0.06424 -0.236672,0.161213 -0.463034,0.583094 -0.492208,0.920945 -0.02916,0.337858 0.145765,0.461391 0.379007,0.289869 0.231529,-0.169785 0.43734,-0.560803 0.471677,-0.890089 0.02573,-0.246964 -0.05469,-0.394595 -0.197068,-0.384963 z m -3.743732,6.459011 c -0.0021,0.0015 -0.0045,0.0028 -0.0067,0.0042 0.0024,-0.0013 0.0044,-0.0028 0.0067,-0.0042 z"
       style="fill:#4c7ac9;stroke-width:0.17150246"
       inkscape:connector-curvature="0" />
    <path
       id="path12"
       d="m 38.494853,23.866876 c -0.03601,-0.535086 0.04802,-1.087322 0.425325,-1.406316 l 2.047734,1.137058 c 0.252108,0.138917 0.42704,0.197228 0.821494,-0.02401 l 0.758039,-0.42704 c -0.660283,0.367014 -1.191939,1.142203 -1.191939,1.975703 l -0.0017,4.740315 c 0,0.399599 0.138916,0.641418 0.346434,0.691154 0.0909,0.02058 0.195512,0.0034 0.279548,-0.03773 -0.06174,0.04288 -0.176647,0.08404 -0.250393,0.09604 -0.06174,0.01029 -0.121766,0.01029 -0.186937,0.0017 -0.207517,-0.03087 -0.432185,-0.128627 -0.612263,-0.269259 L 39.275184,29.05824 c -0.310418,-0.243532 -0.476775,-0.735743 -0.493925,-0.968986 z"
       style="fill:#6d97d6;stroke-width:0.17150199"
       inkscape:connector-curvature="0" />
  </g>
</svg>
