<?xml version="1.0" encoding="UTF-8" standalone="no"?>
<!-- Created with Inkscape (http://www.inkscape.org/) -->

<svg
   xmlns:dc="http://purl.org/dc/elements/1.1/"
   xmlns:cc="http://creativecommons.org/ns#"
   xmlns:rdf="http://www.w3.org/1999/02/22-rdf-syntax-ns#"
   xmlns:svg="http://www.w3.org/2000/svg"
   xmlns="http://www.w3.org/2000/svg"
   xmlns:sodipodi="http://sodipodi.sourceforge.net/DTD/sodipodi-0.dtd"
   xmlns:inkscape="http://www.inkscape.org/namespaces/inkscape"
   width="140"
   height="40"
   version="1.1"
   viewBox="0 0 37.042069 10.583"
   id="svg36"
   sodipodi:docname="logo-freecad-new.svg"
   inkscape:version="0.92.3 (2405546, 2018-03-11)">
  <sodipodi:namedview
     pagecolor="#ffffff"
     bordercolor="#666666"
     borderopacity="1"
     objecttolerance="10"
     gridtolerance="10"
     guidetolerance="10"
     inkscape:pageopacity="0"
     inkscape:pageshadow="2"
     inkscape:window-width="1366"
     inkscape:window-height="704"
     id="namedview38"
     showgrid="false"
     inkscape:zoom="13.051171"
     inkscape:cx="27.776592"
     inkscape:cy="25.248891"
     inkscape:window-x="0"
     inkscape:window-y="27"
     inkscape:window-maximized="1"
     inkscape:current-layer="svg36" />
  <defs
     id="defs12">
    <linearGradient
       id="linearGradient954"
       x1="-146.74"
       x2="-157.32"
       y1="58.262"
       y2="26.521"
       gradientTransform="matrix(6.9077,0,0,6.9077,-4100,1055.2)"
       gradientUnits="userSpaceOnUse">
      <stop
         stop-color="#204a87"
         offset="0"
         id="stop2" />
      <stop
         stop-color="#729fcf"
         offset="1"
         id="stop4" />
    </linearGradient>
    <linearGradient
       id="linearGradient956"
       x1="-206.7"
       x2="-211.4"
       y1="68.842"
       y2="7.7114"
       gradientTransform="matrix(6.843,0,0,6.843,-3961.1,1029.7)"
       gradientUnits="userSpaceOnUse">
      <stop
         stop-color="#a40000"
         offset="0"
         id="stop7" />
      <stop
         stop-color="#ef2929"
         offset="1"
         id="stop9" />
    </linearGradient>
  </defs>
  <metadata
     id="metadata14">
    <rdf:RDF>
      <cc:Work
         rdf:about="">
        <dc:format>image/svg+xml</dc:format>
        <dc:type
           rdf:resource="http://purl.org/dc/dcmitype/StillImage" />
        <dc:title />
      </cc:Work>
    </rdf:RDF>
  </metadata>
  <path
     d="m 5.2933567,-3.27724e-4 c -2.9316432,0 -5.29169686,2.360116024 -5.29169686,5.291696824 0,2.9315809 2.36011606,5.2916969 5.29169686,5.2916969 H 31.751841 c 2.931643,0 5.291697,-2.360116 5.291697,-5.2916969 0,-2.9316432 -2.360116,-5.291696824 -5.291697,-5.291696824 z M 24.178279,3.6841165 c 0.47903,0 1.003152,0.2238934 1.325389,0.573081 L 24.903835,4.9690637 C 24.71581,4.7138639 24.433747,4.5480593 24.191969,4.5480593 c -0.376057,0 -0.649341,0.3002218 -0.649341,0.7165462 0,0.4208422 0.273309,0.72522 0.649341,0.72522 0.22385,0 0.505919,-0.1387166 0.711866,-0.358086 l 0.599833,0.6399183 c -0.349188,0.3805627 -0.882033,0.626939 -1.365513,0.626939 -0.96253,0 -1.661104,-0.6849715 -1.661104,-1.6206063 0,-0.9222187 0.716296,-1.5938989 1.701228,-1.5938989 z m -11.906038,0.03145 h 2.525104 v 0.787683 h -1.486633 v 0.5420304 h 1.392657 v 0.787683 h -1.392657 v 1.0208116 h -1.038471 z m 14.452607,0 h 1.065615 l 1.275905,3.1383141 H 27.960692 L 27.803848,6.4104867 h -1.17725 l -0.161555,0.4433938 h -1.065241 z m 2.519986,0 h 1.401331 c 1.034165,0 1.705533,0.6131734 1.705533,1.5668171 0,0.9536061 -0.684971,1.571497 -1.745969,1.571497 H 29.244896 Z M 16.873912,4.3602272 V 5.2690297 C 16.421745,5.2018804 16.12629,5.3629489 16.12629,5.6853042 V 6.8539429 H 15.118895 V 4.4050932 h 1.007395 v 0.3580797 c 0.170123,-0.2551873 0.429754,-0.4029083 0.747622,-0.4029083 z m 1.419365,0.00899 c 0.855075,0 1.356339,0.5818607 1.302675,1.4862578 h -1.593525 c 0.06715,0.1925059 0.210241,0.2908805 0.407221,0.2908805 0.170122,0 0.344632,-0.076085 0.496846,-0.2193569 l 0.523965,0.5149361 c -0.259661,0.2865311 -0.635862,0.4477057 -1.110419,0.4477057 -0.837229,0 -1.334062,-0.4925718 -1.334062,-1.2491355 0,-0.7745164 0.519416,-1.2711629 1.307355,-1.2711629 z m 2.745627,0 c 0.855138,0 1.356339,0.5818607 1.302675,1.4862578 h -1.593525 c 0.06716,0.1925059 0.210247,0.2908805 0.407227,0.2908805 0.170129,0 0.344626,-0.076085 0.496852,-0.2193569 l 0.523959,0.5149361 c -0.259661,0.2865311 -0.635862,0.4477057 -1.110419,0.4477057 -0.837229,0 -1.334125,-0.4925718 -1.334125,-1.2491355 0,-0.7745164 0.519411,-1.2711629 1.307356,-1.2711629 z m 9.244651,0.1521202 v 1.5266934 h 0.389529 c 0.376064,0 0.617922,-0.2955418 0.617922,-0.7566698 0,-0.4656022 -0.264135,-0.7700236 -0.667062,-0.7700236 z m -3.056944,0.228357 -0.331366,0.9178506 h 0.653709 z m -8.923912,0.2908804 c -0.174603,0 -0.282026,0.1435027 -0.322318,0.3494497 h 0.608862 C 18.602721,5.1885579 18.47729,5.0405748 18.302699,5.0405748 Z m 2.745627,0 c -0.174597,0 -0.282038,0.1435027 -0.322318,0.3494497 H 21.33487 C 21.348286,5.1885579 21.222917,5.0405748 21.048326,5.0405748 Z"
     style="fill:#ffffff;stroke-width:0.89101833;paint-order:normal"
     id="path16"
     inkscape:connector-curvature="0" />
  <path
     inkscape:connector-curvature="0"
     style="fill-rule:nonzero;stroke-width:0.05298948;fill:#ffffff"
     d="m 9.6856824,6.2872481 c -0.00901,0.073126 -0.044511,0.1430718 -0.1054491,0.1934118 L 7.6975172,8.0343112 C 7.6063755,8.1201541 7.4447573,8.1556569 7.3250012,8.1381706 7.210544,8.1217425 7.0902578,8.0676945 6.999116,7.9966888 L 6.4882972,7.5987375 C 6.3436361,7.4863999 6.2350077,7.2696733 6.2228203,7.0868593 L 6.2069236,6.8484066 5.9176011,6.9904186 C 5.8089727,7.0434078 5.6833875,7.0216821 5.5980745,6.9448476 L 5.0353263,6.4806599 C 4.9743885,6.4303199 4.9388854,6.3603737 4.9298773,6.2872481 L 4.4603904,3.2408834 C 4.4360156,3.0829747 4.5414643,2.9346041 4.6967235,2.9070496 l 2.5609816,-0.462598 c 0.036563,-0.00636 0.072595,-0.0053 0.1070384,0.00158 l 2.5540927,0.4599486 c 0.1584388,0.028086 0.2644178,0.1806942 0.2368628,0.3407224 z"
     id="path2" />
  <path
     d="M 4.7465324,3.1963792 5.2181274,6.2523388 5.7914869,6.7255167 5.6892049,5.86181 C 5.6664179,5.845382 5.6542479,5.807754 5.6685559,5.784968 5.6823329,5.762184 5.7104059,5.750519 5.7310719,5.765357 l 0.6194571,0.436107 -0.030727,-0.4519836 -0.00319,-0.045052 -5e-5,-0.00226 L 6.2805716,5.1755831 5.573161,4.7829276 C 5.548258,4.7691506 5.533424,4.7341766 5.547201,4.7092726 5.560978,4.6843696 5.585887,4.6705956 5.605493,4.6833126 L 7.308021,5.6281131 V 4.1730554 Z"
     id="path4"
     inkscape:connector-curvature="0"
     style="fill:#c20202;stroke-width:0.05298962"
     sodipodi:nodetypes="ccccccccccccscccc" />
  <path
     d="M 9.8689837,3.1963792 7.3079512,4.1729667 v 1.455058 L 9.6993356,4.2931946 Z M 6.2805176,5.175485 6.3197408,5.7493639 C 6.3070234,5.5633675 6.3504589,5.3545821 6.4596159,5.2740353 L 6.2805188,5.1754825 Z M 5.6891542,5.8617012 5.791436,6.7254079 6.3668981,6.4435069 6.3594889,6.3338147 5.6891495,5.8617003 Z"
     id="path6"
     inkscape:connector-curvature="0"
     style="fill:#8c0000;stroke-width:0.05298962"
     sodipodi:nodetypes="cccccccccccccccc" />
  <polygon
     transform="matrix(0.05298948,0,0,0.05298948,4.4566809,2.4402122)"
     style="fill:#ed0000"
     points="53.81,5.56 102.14,14.27 53.81,32.7 5.47,14.27 "
     id="polygon8" />
  <path
     inkscape:connector-curvature="0"
     style="fill:#4c7ac9;stroke-width:0.05298962"
     d="M 9.6798817,4.4225572 7.6710512,5.5432005 C 7.4695276,5.6577881 7.3081084,5.8952807 7.3081084,6.1505502 l -5.561e-4,1.4646034 c 0,0.1234662 0.042931,0.1981885 0.1070498,0.2135587 0.027953,0.00633 0.060096,0.00108 0.085999,-0.011494 0.00142,-9.269e-4 0.00294,-0.00182 0.00408,-0.00281 L 9.3975141,6.2522922 9.5230947,5.4378367 9.042486,5.7775074 8.8808731,5.9523632 l -0.030208,0.091686 0.056168,0.1425215 -0.080547,0.1526228 -0.1271757,-0.00847 -0.056167,0.071531 -0.06516,0.2548829 -0.1054682,0.08319 -0.024353,-0.1902377 -0.054587,0.012201 -0.166917,0.2400327 -0.07578,-0.042385 L 8.260913,6.475911 8.241302,6.414433 8.0558249,6.484384 l 0.00902,-0.1626758 0.1976448,-0.2008349 0.03179,-0.1017392 -0.08319,-0.1706266 0.096453,-0.1790971 0.1579031,0.03179 0.06306,-0.075237 0.071531,-0.2972706 0.1144606,-0.069951 0.02013,0.2352718 0.052463,-0.00213 0.1616126,-0.2273089 0.058811,0.068889 -0.1075692,0.2765962 0.01272,0.065183 L 9.070043,5.6323102 9.5448281,5.2963611 9.6799423,4.4225773 Z M 7.656189,5.5514896 7.4116252,5.687921 c 0.00975,-0.00473 0.019793,-0.00986 0.030539,-0.015881 L 7.6561936,5.5514906 Z m 1.0000289,0.2708086 c -0.014664,9.887e-4 -0.031453,0.00739 -0.049867,0.019849 -0.073125,0.04981 -0.143065,0.1801602 -0.1520789,0.284547 -0.00901,0.104389 0.045037,0.1425574 0.1171029,0.089562 C 8.6429108,6.1637964 8.7065008,6.0429825 8.71711,5.941242 8.7250599,5.8649368 8.7002123,5.8193228 8.6562213,5.8222989 Z M 7.499506,7.8179579 c -6.488e-4,4.634e-4 -0.00139,8.651e-4 -0.00207,0.0013 7.416e-4,-4.016e-4 0.00136,-8.651e-4 0.00207,-0.0013 z"
     id="path10" />
  <path
     inkscape:connector-curvature="0"
     style="fill:#6d97d6;stroke-width:0.05298948"
     d="M 6.4241801,5.7626522 C 6.413054,5.5973252 6.439017,5.4266992 6.555594,5.3281387 l 0.6326944,0.3513201 c 0.077895,0.042922 0.1319438,0.060938 0.2538194,-0.00742 L 7.6763214,5.5400966 C 7.4723118,5.653494 7.3080445,5.8930064 7.3080445,6.1505353 l -5.253e-4,1.4646291 c 0,0.1234653 0.042921,0.1981808 0.1070388,0.2135479 0.028086,0.00636 0.060408,0.00105 0.086373,-0.011658 -0.019076,0.013249 -0.054579,0.025966 -0.077365,0.029674 -0.019076,0.00318 -0.037622,0.00318 -0.057759,5.252e-4 C 7.3016904,7.8377157 7.2322741,7.8075115 7.1766349,7.76406 L 6.6652813,7.3666432 C 6.5693705,7.2913984 6.5179707,7.1393186 6.5126718,7.0672528 Z"
     id="path12" />
</svg>
